G04 #@! TF.GenerationSoftware,KiCad,Pcbnew,5.0.2+dfsg1-1*
G04 #@! TF.CreationDate,2020-04-05T23:11:44-04:00*
G04 #@! TF.ProjectId,vreg-741,76726567-2d37-4343-912e-6b696361645f,rev?*
G04 #@! TF.SameCoordinates,Original*
G04 #@! TF.FileFunction,Soldermask,Top*
G04 #@! TF.FilePolarity,Negative*
%FSLAX46Y46*%
G04 Gerber Fmt 4.6, Leading zero omitted, Abs format (unit mm)*
G04 Created by KiCad (PCBNEW 5.0.2+dfsg1-1) date Sun 05 Apr 2020 11:11:44 PM EDT*
%MOMM*%
%LPD*%
G01*
G04 APERTURE LIST*
%ADD10C,0.100000*%
G04 APERTURE END LIST*
D10*
G36*
X168717083Y-86515975D02*
X168717085Y-86515976D01*
X168717086Y-86515976D01*
X169072145Y-86663046D01*
X169072146Y-86663047D01*
X169391693Y-86876561D01*
X169663439Y-87148307D01*
X169663441Y-87148310D01*
X169876954Y-87467855D01*
X170011196Y-87791944D01*
X170024025Y-87822917D01*
X170099000Y-88199842D01*
X170099000Y-88584158D01*
X170069366Y-88733140D01*
X170024024Y-88961086D01*
X169876954Y-89316145D01*
X169821592Y-89399000D01*
X169663439Y-89635693D01*
X169391693Y-89907439D01*
X169391690Y-89907441D01*
X169072145Y-90120954D01*
X168717086Y-90268024D01*
X168717085Y-90268024D01*
X168717083Y-90268025D01*
X168340158Y-90343000D01*
X167955842Y-90343000D01*
X167578917Y-90268025D01*
X167578915Y-90268024D01*
X167578914Y-90268024D01*
X167223855Y-90120954D01*
X166904310Y-89907441D01*
X166904307Y-89907439D01*
X166632561Y-89635693D01*
X166474408Y-89399000D01*
X166419046Y-89316145D01*
X166271976Y-88961086D01*
X166226635Y-88733140D01*
X166197000Y-88584158D01*
X166197000Y-88199842D01*
X166271975Y-87822917D01*
X166284804Y-87791944D01*
X166419046Y-87467855D01*
X166632559Y-87148310D01*
X166632561Y-87148307D01*
X166904307Y-86876561D01*
X167223854Y-86663047D01*
X167223855Y-86663046D01*
X167578914Y-86515976D01*
X167578915Y-86515976D01*
X167578917Y-86515975D01*
X167955842Y-86441000D01*
X168340158Y-86441000D01*
X168717083Y-86515975D01*
X168717083Y-86515975D01*
G37*
G36*
X176253859Y-89140445D02*
X176291353Y-89151819D01*
X176325917Y-89170294D01*
X176356207Y-89195153D01*
X176381066Y-89225443D01*
X176399541Y-89260007D01*
X176410915Y-89297501D01*
X176415360Y-89342638D01*
X176415360Y-89981362D01*
X176410915Y-90026499D01*
X176399541Y-90063993D01*
X176381066Y-90098557D01*
X176356207Y-90128847D01*
X176325917Y-90153706D01*
X176291353Y-90172181D01*
X176253859Y-90183555D01*
X176208722Y-90188000D01*
X175469998Y-90188000D01*
X175424861Y-90183555D01*
X175387367Y-90172181D01*
X175352803Y-90153706D01*
X175322513Y-90128847D01*
X175297654Y-90098557D01*
X175279179Y-90063993D01*
X175267805Y-90026499D01*
X175263360Y-89981362D01*
X175263360Y-89342638D01*
X175267805Y-89297501D01*
X175279179Y-89260007D01*
X175297654Y-89225443D01*
X175322513Y-89195153D01*
X175352803Y-89170294D01*
X175387367Y-89151819D01*
X175424861Y-89140445D01*
X175469998Y-89136000D01*
X176208722Y-89136000D01*
X176253859Y-89140445D01*
X176253859Y-89140445D01*
G37*
G36*
X174503859Y-89140445D02*
X174541353Y-89151819D01*
X174575917Y-89170294D01*
X174606207Y-89195153D01*
X174631066Y-89225443D01*
X174649541Y-89260007D01*
X174660915Y-89297501D01*
X174665360Y-89342638D01*
X174665360Y-89981362D01*
X174660915Y-90026499D01*
X174649541Y-90063993D01*
X174631066Y-90098557D01*
X174606207Y-90128847D01*
X174575917Y-90153706D01*
X174541353Y-90172181D01*
X174503859Y-90183555D01*
X174458722Y-90188000D01*
X173719998Y-90188000D01*
X173674861Y-90183555D01*
X173637367Y-90172181D01*
X173602803Y-90153706D01*
X173572513Y-90128847D01*
X173547654Y-90098557D01*
X173529179Y-90063993D01*
X173517805Y-90026499D01*
X173513360Y-89981362D01*
X173513360Y-89342638D01*
X173517805Y-89297501D01*
X173529179Y-89260007D01*
X173547654Y-89225443D01*
X173572513Y-89195153D01*
X173602803Y-89170294D01*
X173637367Y-89151819D01*
X173674861Y-89140445D01*
X173719998Y-89136000D01*
X174458722Y-89136000D01*
X174503859Y-89140445D01*
X174503859Y-89140445D01*
G37*
G36*
X181996004Y-87271544D02*
X182083059Y-87288860D01*
X182219732Y-87345472D01*
X182219733Y-87345473D01*
X182342738Y-87427662D01*
X182447338Y-87532262D01*
X182447340Y-87532265D01*
X182529528Y-87655268D01*
X182586140Y-87791941D01*
X182615000Y-87937033D01*
X182615000Y-88084967D01*
X182586140Y-88230059D01*
X182529528Y-88366732D01*
X182468038Y-88458758D01*
X182447338Y-88489738D01*
X182342738Y-88594338D01*
X182342735Y-88594340D01*
X182219732Y-88676528D01*
X182083059Y-88733140D01*
X181996004Y-88750456D01*
X181937969Y-88762000D01*
X181790031Y-88762000D01*
X181731996Y-88750456D01*
X181644941Y-88733140D01*
X181508268Y-88676528D01*
X181385265Y-88594340D01*
X181385262Y-88594338D01*
X181280662Y-88489738D01*
X181259962Y-88458758D01*
X181198472Y-88366732D01*
X181141860Y-88230059D01*
X181113000Y-88084967D01*
X181113000Y-87937033D01*
X181141860Y-87791941D01*
X181198472Y-87655268D01*
X181280660Y-87532265D01*
X181280662Y-87532262D01*
X181385262Y-87427662D01*
X181508267Y-87345473D01*
X181508268Y-87345472D01*
X181644941Y-87288860D01*
X181731996Y-87271544D01*
X181790031Y-87260000D01*
X181937969Y-87260000D01*
X181996004Y-87271544D01*
X181996004Y-87271544D01*
G37*
G36*
X192537004Y-87271544D02*
X192624059Y-87288860D01*
X192760732Y-87345472D01*
X192760733Y-87345473D01*
X192883738Y-87427662D01*
X192988338Y-87532262D01*
X192988340Y-87532265D01*
X193070528Y-87655268D01*
X193127140Y-87791941D01*
X193156000Y-87937033D01*
X193156000Y-88084967D01*
X193127140Y-88230059D01*
X193070528Y-88366732D01*
X193009038Y-88458758D01*
X192988338Y-88489738D01*
X192883738Y-88594338D01*
X192883735Y-88594340D01*
X192760732Y-88676528D01*
X192624059Y-88733140D01*
X192537004Y-88750456D01*
X192478969Y-88762000D01*
X192331031Y-88762000D01*
X192272996Y-88750456D01*
X192185941Y-88733140D01*
X192049268Y-88676528D01*
X191926265Y-88594340D01*
X191926262Y-88594338D01*
X191821662Y-88489738D01*
X191800962Y-88458758D01*
X191739472Y-88366732D01*
X191682860Y-88230059D01*
X191654000Y-88084967D01*
X191654000Y-87937033D01*
X191682860Y-87791941D01*
X191739472Y-87655268D01*
X191821660Y-87532265D01*
X191821662Y-87532262D01*
X191926262Y-87427662D01*
X192049267Y-87345473D01*
X192049268Y-87345472D01*
X192185941Y-87288860D01*
X192272996Y-87271544D01*
X192331031Y-87260000D01*
X192478969Y-87260000D01*
X192537004Y-87271544D01*
X192537004Y-87271544D01*
G37*
G36*
X178818269Y-87260000D02*
X178908059Y-87277860D01*
X179044732Y-87334472D01*
X179061196Y-87345473D01*
X179167738Y-87416662D01*
X179272338Y-87521262D01*
X179272340Y-87521265D01*
X179354528Y-87644268D01*
X179411140Y-87780941D01*
X179440000Y-87926033D01*
X179440000Y-88073967D01*
X179411140Y-88219059D01*
X179354528Y-88355732D01*
X179312318Y-88418904D01*
X179272338Y-88478738D01*
X179167738Y-88583338D01*
X179167735Y-88583340D01*
X179044732Y-88665528D01*
X178908059Y-88722140D01*
X178821004Y-88739456D01*
X178762969Y-88751000D01*
X178615031Y-88751000D01*
X178556996Y-88739456D01*
X178469941Y-88722140D01*
X178333268Y-88665528D01*
X178210265Y-88583340D01*
X178210262Y-88583338D01*
X178105662Y-88478738D01*
X178065682Y-88418904D01*
X178023472Y-88355732D01*
X177966860Y-88219059D01*
X177938000Y-88073967D01*
X177938000Y-87926033D01*
X177966860Y-87780941D01*
X178023472Y-87644268D01*
X178105660Y-87521265D01*
X178105662Y-87521262D01*
X178210262Y-87416662D01*
X178316804Y-87345473D01*
X178333268Y-87334472D01*
X178469941Y-87277860D01*
X178559731Y-87260000D01*
X178615031Y-87249000D01*
X178762969Y-87249000D01*
X178818269Y-87260000D01*
X178818269Y-87260000D01*
G37*
G36*
X201045800Y-88574600D02*
X198343800Y-88574600D01*
X198343800Y-85872600D01*
X201045800Y-85872600D01*
X201045800Y-88574600D01*
X201045800Y-88574600D01*
G37*
G36*
X176253859Y-87488234D02*
X176291353Y-87499608D01*
X176325917Y-87518083D01*
X176356207Y-87542942D01*
X176381066Y-87573232D01*
X176399541Y-87607796D01*
X176410915Y-87645290D01*
X176415360Y-87690427D01*
X176415360Y-88329151D01*
X176410915Y-88374288D01*
X176399541Y-88411782D01*
X176381066Y-88446346D01*
X176356207Y-88476636D01*
X176325917Y-88501495D01*
X176291353Y-88519970D01*
X176253859Y-88531344D01*
X176208722Y-88535789D01*
X175469998Y-88535789D01*
X175424861Y-88531344D01*
X175387367Y-88519970D01*
X175352803Y-88501495D01*
X175322513Y-88476636D01*
X175297654Y-88446346D01*
X175279179Y-88411782D01*
X175267805Y-88374288D01*
X175263360Y-88329151D01*
X175263360Y-87690427D01*
X175267805Y-87645290D01*
X175279179Y-87607796D01*
X175297654Y-87573232D01*
X175322513Y-87542942D01*
X175352803Y-87518083D01*
X175387367Y-87499608D01*
X175424861Y-87488234D01*
X175469998Y-87483789D01*
X176208722Y-87483789D01*
X176253859Y-87488234D01*
X176253859Y-87488234D01*
G37*
G36*
X174503859Y-87488234D02*
X174541353Y-87499608D01*
X174575917Y-87518083D01*
X174606207Y-87542942D01*
X174631066Y-87573232D01*
X174649541Y-87607796D01*
X174660915Y-87645290D01*
X174665360Y-87690427D01*
X174665360Y-88329151D01*
X174660915Y-88374288D01*
X174649541Y-88411782D01*
X174631066Y-88446346D01*
X174606207Y-88476636D01*
X174575917Y-88501495D01*
X174541353Y-88519970D01*
X174503859Y-88531344D01*
X174458722Y-88535789D01*
X173719998Y-88535789D01*
X173674861Y-88531344D01*
X173637367Y-88519970D01*
X173602803Y-88501495D01*
X173572513Y-88476636D01*
X173547654Y-88446346D01*
X173529179Y-88411782D01*
X173517805Y-88374288D01*
X173513360Y-88329151D01*
X173513360Y-87690427D01*
X173517805Y-87645290D01*
X173529179Y-87607796D01*
X173547654Y-87573232D01*
X173572513Y-87542942D01*
X173602803Y-87518083D01*
X173637367Y-87499608D01*
X173674861Y-87488234D01*
X173719998Y-87483789D01*
X174458722Y-87483789D01*
X174503859Y-87488234D01*
X174503859Y-87488234D01*
G37*
G36*
X193518799Y-84593345D02*
X193556293Y-84604719D01*
X193590857Y-84623194D01*
X193621147Y-84648053D01*
X193646006Y-84678343D01*
X193664481Y-84712907D01*
X193675855Y-84750401D01*
X193680300Y-84795538D01*
X193680300Y-85534262D01*
X193675855Y-85579399D01*
X193664481Y-85616893D01*
X193646006Y-85651457D01*
X193621147Y-85681747D01*
X193590857Y-85706606D01*
X193556293Y-85725081D01*
X193518799Y-85736455D01*
X193473662Y-85740900D01*
X192834938Y-85740900D01*
X192789801Y-85736455D01*
X192752307Y-85725081D01*
X192717743Y-85706606D01*
X192687453Y-85681747D01*
X192662594Y-85651457D01*
X192644119Y-85616893D01*
X192632745Y-85579399D01*
X192628300Y-85534262D01*
X192628300Y-84795538D01*
X192632745Y-84750401D01*
X192644119Y-84712907D01*
X192662594Y-84678343D01*
X192687453Y-84648053D01*
X192717743Y-84623194D01*
X192752307Y-84604719D01*
X192789801Y-84593345D01*
X192834938Y-84588900D01*
X193473662Y-84588900D01*
X193518799Y-84593345D01*
X193518799Y-84593345D01*
G37*
G36*
X185841400Y-85252600D02*
X184139400Y-85252600D01*
X184139400Y-83850600D01*
X185841400Y-83850600D01*
X185841400Y-85252600D01*
X185841400Y-85252600D01*
G37*
G36*
X175396567Y-81732959D02*
X175527072Y-81758918D01*
X175772939Y-81860759D01*
X175993464Y-82008110D01*
X175994215Y-82008612D01*
X176182388Y-82196785D01*
X176182390Y-82196788D01*
X176330241Y-82418061D01*
X176379785Y-82537672D01*
X176432082Y-82663929D01*
X176484000Y-82924937D01*
X176484000Y-83191063D01*
X176458041Y-83321567D01*
X176432082Y-83452072D01*
X176330241Y-83697939D01*
X176185960Y-83913869D01*
X176182388Y-83919215D01*
X175994215Y-84107388D01*
X175994212Y-84107390D01*
X175772939Y-84255241D01*
X175527072Y-84357082D01*
X175396567Y-84383041D01*
X175266063Y-84409000D01*
X174999937Y-84409000D01*
X174869433Y-84383041D01*
X174738928Y-84357082D01*
X174493061Y-84255241D01*
X174271788Y-84107390D01*
X174271785Y-84107388D01*
X174083612Y-83919215D01*
X174080040Y-83913869D01*
X173935759Y-83697939D01*
X173833918Y-83452072D01*
X173807959Y-83321567D01*
X173782000Y-83191063D01*
X173782000Y-82924937D01*
X173833918Y-82663929D01*
X173886215Y-82537672D01*
X173935759Y-82418061D01*
X174083610Y-82196788D01*
X174083612Y-82196785D01*
X174271785Y-82008612D01*
X174272536Y-82008110D01*
X174493061Y-81860759D01*
X174738928Y-81758918D01*
X174869433Y-81732959D01*
X174999937Y-81707000D01*
X175266063Y-81707000D01*
X175396567Y-81732959D01*
X175396567Y-81732959D01*
G37*
G36*
X182941400Y-84352600D02*
X181239400Y-84352600D01*
X181239400Y-82250600D01*
X182941400Y-82250600D01*
X182941400Y-84352600D01*
X182941400Y-84352600D01*
G37*
G36*
X193518799Y-82843345D02*
X193556293Y-82854719D01*
X193590857Y-82873194D01*
X193621147Y-82898053D01*
X193646006Y-82928343D01*
X193664481Y-82962907D01*
X193675855Y-83000401D01*
X193680300Y-83045538D01*
X193680300Y-83784262D01*
X193675855Y-83829399D01*
X193664481Y-83866893D01*
X193646006Y-83901457D01*
X193621147Y-83931747D01*
X193590857Y-83956606D01*
X193556293Y-83975081D01*
X193518799Y-83986455D01*
X193473662Y-83990900D01*
X192834938Y-83990900D01*
X192789801Y-83986455D01*
X192752307Y-83975081D01*
X192717743Y-83956606D01*
X192687453Y-83931747D01*
X192662594Y-83901457D01*
X192644119Y-83866893D01*
X192632745Y-83829399D01*
X192628300Y-83784262D01*
X192628300Y-83045538D01*
X192632745Y-83000401D01*
X192644119Y-82962907D01*
X192662594Y-82928343D01*
X192687453Y-82898053D01*
X192717743Y-82873194D01*
X192752307Y-82854719D01*
X192789801Y-82843345D01*
X192834938Y-82838900D01*
X193473662Y-82838900D01*
X193518799Y-82843345D01*
X193518799Y-82843345D01*
G37*
G36*
X199958367Y-80818559D02*
X200088872Y-80844518D01*
X200334739Y-80946359D01*
X200555264Y-81093710D01*
X200556015Y-81094212D01*
X200744188Y-81282385D01*
X200744190Y-81282388D01*
X200892041Y-81503661D01*
X200976266Y-81707000D01*
X200993882Y-81749529D01*
X201045417Y-82008610D01*
X201045800Y-82010538D01*
X201045800Y-82276662D01*
X200993882Y-82537672D01*
X200892041Y-82783539D01*
X200795285Y-82928343D01*
X200744188Y-83004815D01*
X200556015Y-83192988D01*
X200556012Y-83192990D01*
X200334739Y-83340841D01*
X200088872Y-83442682D01*
X200041670Y-83452071D01*
X199827863Y-83494600D01*
X199561737Y-83494600D01*
X199347930Y-83452071D01*
X199300728Y-83442682D01*
X199054861Y-83340841D01*
X198833588Y-83192990D01*
X198833585Y-83192988D01*
X198645412Y-83004815D01*
X198594315Y-82928343D01*
X198497559Y-82783539D01*
X198395718Y-82537672D01*
X198343800Y-82276662D01*
X198343800Y-82010538D01*
X198344184Y-82008610D01*
X198395718Y-81749529D01*
X198413334Y-81707000D01*
X198497559Y-81503661D01*
X198645410Y-81282388D01*
X198645412Y-81282385D01*
X198833585Y-81094212D01*
X198834336Y-81093710D01*
X199054861Y-80946359D01*
X199300728Y-80844518D01*
X199431233Y-80818559D01*
X199561737Y-80792600D01*
X199827863Y-80792600D01*
X199958367Y-80818559D01*
X199958367Y-80818559D01*
G37*
G36*
X185841400Y-82752600D02*
X184139400Y-82752600D01*
X184139400Y-81350600D01*
X185841400Y-81350600D01*
X185841400Y-82752600D01*
X185841400Y-82752600D01*
G37*
G36*
X189461000Y-82300000D02*
X188459000Y-82300000D01*
X188459000Y-81398000D01*
X189461000Y-81398000D01*
X189461000Y-82300000D01*
X189461000Y-82300000D01*
G37*
G36*
X187461000Y-81350000D02*
X186459000Y-81350000D01*
X186459000Y-80448000D01*
X187461000Y-80448000D01*
X187461000Y-81350000D01*
X187461000Y-81350000D01*
G37*
G36*
X189461000Y-80400000D02*
X188459000Y-80400000D01*
X188459000Y-79498000D01*
X189461000Y-79498000D01*
X189461000Y-80400000D01*
X189461000Y-80400000D01*
G37*
G36*
X182292499Y-79234445D02*
X182329993Y-79245819D01*
X182364557Y-79264294D01*
X182394847Y-79289153D01*
X182419706Y-79319443D01*
X182438181Y-79354007D01*
X182449555Y-79391501D01*
X182454000Y-79436638D01*
X182454000Y-80075362D01*
X182449555Y-80120499D01*
X182438181Y-80157993D01*
X182419706Y-80192557D01*
X182394847Y-80222847D01*
X182364557Y-80247706D01*
X182329993Y-80266181D01*
X182292499Y-80277555D01*
X182247362Y-80282000D01*
X181508638Y-80282000D01*
X181463501Y-80277555D01*
X181426007Y-80266181D01*
X181391443Y-80247706D01*
X181361153Y-80222847D01*
X181336294Y-80192557D01*
X181317819Y-80157993D01*
X181306445Y-80120499D01*
X181302000Y-80075362D01*
X181302000Y-79436638D01*
X181306445Y-79391501D01*
X181317819Y-79354007D01*
X181336294Y-79319443D01*
X181361153Y-79289153D01*
X181391443Y-79264294D01*
X181426007Y-79245819D01*
X181463501Y-79234445D01*
X181508638Y-79230000D01*
X182247362Y-79230000D01*
X182292499Y-79234445D01*
X182292499Y-79234445D01*
G37*
G36*
X184042499Y-79234445D02*
X184079993Y-79245819D01*
X184114557Y-79264294D01*
X184144847Y-79289153D01*
X184169706Y-79319443D01*
X184188181Y-79354007D01*
X184199555Y-79391501D01*
X184204000Y-79436638D01*
X184204000Y-80075362D01*
X184199555Y-80120499D01*
X184188181Y-80157993D01*
X184169706Y-80192557D01*
X184144847Y-80222847D01*
X184114557Y-80247706D01*
X184079993Y-80266181D01*
X184042499Y-80277555D01*
X183997362Y-80282000D01*
X183258638Y-80282000D01*
X183213501Y-80277555D01*
X183176007Y-80266181D01*
X183141443Y-80247706D01*
X183111153Y-80222847D01*
X183086294Y-80192557D01*
X183067819Y-80157993D01*
X183056445Y-80120499D01*
X183052000Y-80075362D01*
X183052000Y-79436638D01*
X183056445Y-79391501D01*
X183067819Y-79354007D01*
X183086294Y-79319443D01*
X183111153Y-79289153D01*
X183141443Y-79264294D01*
X183176007Y-79245819D01*
X183213501Y-79234445D01*
X183258638Y-79230000D01*
X183997362Y-79230000D01*
X184042499Y-79234445D01*
X184042499Y-79234445D01*
G37*
G36*
X176484000Y-79329000D02*
X173782000Y-79329000D01*
X173782000Y-76627000D01*
X176484000Y-76627000D01*
X176484000Y-79329000D01*
X176484000Y-79329000D01*
G37*
G36*
X192133500Y-78686500D02*
X188231500Y-78686500D01*
X188231500Y-76584500D01*
X192133500Y-76584500D01*
X192133500Y-78686500D01*
X192133500Y-78686500D01*
G37*
G36*
X185981500Y-78663500D02*
X185279500Y-78663500D01*
X185279500Y-77011500D01*
X185981500Y-77011500D01*
X185981500Y-78663500D01*
X185981500Y-78663500D01*
G37*
G36*
X184711500Y-78663500D02*
X184009500Y-78663500D01*
X184009500Y-77011500D01*
X184711500Y-77011500D01*
X184711500Y-78663500D01*
X184711500Y-78663500D01*
G37*
G36*
X182171500Y-78663500D02*
X181469500Y-78663500D01*
X181469500Y-77011500D01*
X182171500Y-77011500D01*
X182171500Y-78663500D01*
X182171500Y-78663500D01*
G37*
G36*
X183441500Y-78663500D02*
X182739500Y-78663500D01*
X182739500Y-77011500D01*
X183441500Y-77011500D01*
X183441500Y-78663500D01*
X183441500Y-78663500D01*
G37*
G36*
X209190599Y-77368345D02*
X209228093Y-77379719D01*
X209262657Y-77398194D01*
X209292947Y-77423053D01*
X209317806Y-77453343D01*
X209336281Y-77487907D01*
X209347655Y-77525401D01*
X209352100Y-77570538D01*
X209352100Y-78309262D01*
X209347655Y-78354399D01*
X209336281Y-78391893D01*
X209317806Y-78426457D01*
X209292947Y-78456747D01*
X209262657Y-78481606D01*
X209228093Y-78500081D01*
X209190599Y-78511455D01*
X209145462Y-78515900D01*
X208506738Y-78515900D01*
X208461601Y-78511455D01*
X208424107Y-78500081D01*
X208389543Y-78481606D01*
X208359253Y-78456747D01*
X208334394Y-78426457D01*
X208315919Y-78391893D01*
X208304545Y-78354399D01*
X208300100Y-78309262D01*
X208300100Y-77570538D01*
X208304545Y-77525401D01*
X208315919Y-77487907D01*
X208334394Y-77453343D01*
X208359253Y-77423053D01*
X208389543Y-77398194D01*
X208424107Y-77379719D01*
X208461601Y-77368345D01*
X208506738Y-77363900D01*
X209145462Y-77363900D01*
X209190599Y-77368345D01*
X209190599Y-77368345D01*
G37*
G36*
X207564999Y-77367045D02*
X207602493Y-77378419D01*
X207637057Y-77396894D01*
X207667347Y-77421753D01*
X207692206Y-77452043D01*
X207710681Y-77486607D01*
X207722055Y-77524101D01*
X207726500Y-77569238D01*
X207726500Y-78307962D01*
X207722055Y-78353099D01*
X207710681Y-78390593D01*
X207692206Y-78425157D01*
X207667347Y-78455447D01*
X207637057Y-78480306D01*
X207602493Y-78498781D01*
X207564999Y-78510155D01*
X207519862Y-78514600D01*
X206881138Y-78514600D01*
X206836001Y-78510155D01*
X206798507Y-78498781D01*
X206763943Y-78480306D01*
X206733653Y-78455447D01*
X206708794Y-78425157D01*
X206690319Y-78390593D01*
X206678945Y-78353099D01*
X206674500Y-78307962D01*
X206674500Y-77569238D01*
X206678945Y-77524101D01*
X206690319Y-77486607D01*
X206708794Y-77452043D01*
X206733653Y-77421753D01*
X206763943Y-77396894D01*
X206798507Y-77378419D01*
X206836001Y-77367045D01*
X206881138Y-77362600D01*
X207519862Y-77362600D01*
X207564999Y-77367045D01*
X207564999Y-77367045D01*
G37*
G36*
X204691800Y-77461400D02*
X203089800Y-77461400D01*
X203089800Y-76259400D01*
X204691800Y-76259400D01*
X204691800Y-77461400D01*
X204691800Y-77461400D01*
G37*
G36*
X195791800Y-77461400D02*
X194189800Y-77461400D01*
X194189800Y-76259400D01*
X195791800Y-76259400D01*
X195791800Y-77461400D01*
X195791800Y-77461400D01*
G37*
G36*
X209190599Y-75618345D02*
X209228093Y-75629719D01*
X209262657Y-75648194D01*
X209292947Y-75673053D01*
X209317806Y-75703343D01*
X209336281Y-75737907D01*
X209347655Y-75775401D01*
X209352100Y-75820538D01*
X209352100Y-76559262D01*
X209347655Y-76604399D01*
X209336281Y-76641893D01*
X209317806Y-76676457D01*
X209292947Y-76706747D01*
X209262657Y-76731606D01*
X209228093Y-76750081D01*
X209190599Y-76761455D01*
X209145462Y-76765900D01*
X208506738Y-76765900D01*
X208461601Y-76761455D01*
X208424107Y-76750081D01*
X208389543Y-76731606D01*
X208359253Y-76706747D01*
X208334394Y-76676457D01*
X208315919Y-76641893D01*
X208304545Y-76604399D01*
X208300100Y-76559262D01*
X208300100Y-75820538D01*
X208304545Y-75775401D01*
X208315919Y-75737907D01*
X208334394Y-75703343D01*
X208359253Y-75673053D01*
X208389543Y-75648194D01*
X208424107Y-75629719D01*
X208461601Y-75618345D01*
X208506738Y-75613900D01*
X209145462Y-75613900D01*
X209190599Y-75618345D01*
X209190599Y-75618345D01*
G37*
G36*
X207564999Y-75617045D02*
X207602493Y-75628419D01*
X207637057Y-75646894D01*
X207667347Y-75671753D01*
X207692206Y-75702043D01*
X207710681Y-75736607D01*
X207722055Y-75774101D01*
X207726500Y-75819238D01*
X207726500Y-76557962D01*
X207722055Y-76603099D01*
X207710681Y-76640593D01*
X207692206Y-76675157D01*
X207667347Y-76705447D01*
X207637057Y-76730306D01*
X207602493Y-76748781D01*
X207564999Y-76760155D01*
X207519862Y-76764600D01*
X206881138Y-76764600D01*
X206836001Y-76760155D01*
X206798507Y-76748781D01*
X206763943Y-76730306D01*
X206733653Y-76705447D01*
X206708794Y-76675157D01*
X206690319Y-76640593D01*
X206678945Y-76603099D01*
X206674500Y-76557962D01*
X206674500Y-75819238D01*
X206678945Y-75774101D01*
X206690319Y-75736607D01*
X206708794Y-75702043D01*
X206733653Y-75671753D01*
X206763943Y-75646894D01*
X206798507Y-75628419D01*
X206836001Y-75617045D01*
X206881138Y-75612600D01*
X207519862Y-75612600D01*
X207564999Y-75617045D01*
X207564999Y-75617045D01*
G37*
G36*
X174215500Y-74044500D02*
X172113500Y-74044500D01*
X172113500Y-72442500D01*
X174215500Y-72442500D01*
X174215500Y-74044500D01*
X174215500Y-74044500D01*
G37*
G36*
X182171500Y-73263500D02*
X181469500Y-73263500D01*
X181469500Y-71611500D01*
X182171500Y-71611500D01*
X182171500Y-73263500D01*
X182171500Y-73263500D01*
G37*
G36*
X183441500Y-73263500D02*
X182739500Y-73263500D01*
X182739500Y-71611500D01*
X183441500Y-71611500D01*
X183441500Y-73263500D01*
X183441500Y-73263500D01*
G37*
G36*
X184711500Y-73263500D02*
X184009500Y-73263500D01*
X184009500Y-71611500D01*
X184711500Y-71611500D01*
X184711500Y-73263500D01*
X184711500Y-73263500D01*
G37*
G36*
X185981500Y-73263500D02*
X185279500Y-73263500D01*
X185279500Y-71611500D01*
X185981500Y-71611500D01*
X185981500Y-73263500D01*
X185981500Y-73263500D01*
G37*
G36*
X180515500Y-72894500D02*
X178413500Y-72894500D01*
X178413500Y-68992500D01*
X180515500Y-68992500D01*
X180515500Y-72894500D01*
X180515500Y-72894500D01*
G37*
G36*
X171306499Y-71423445D02*
X171343993Y-71434819D01*
X171378557Y-71453294D01*
X171408847Y-71478153D01*
X171433706Y-71508443D01*
X171452181Y-71543007D01*
X171463555Y-71580501D01*
X171468000Y-71625638D01*
X171468000Y-72364362D01*
X171463555Y-72409499D01*
X171452181Y-72446993D01*
X171433706Y-72481557D01*
X171408847Y-72511847D01*
X171378557Y-72536706D01*
X171343993Y-72555181D01*
X171306499Y-72566555D01*
X171261362Y-72571000D01*
X170622638Y-72571000D01*
X170577501Y-72566555D01*
X170540007Y-72555181D01*
X170505443Y-72536706D01*
X170475153Y-72511847D01*
X170450294Y-72481557D01*
X170431819Y-72446993D01*
X170420445Y-72409499D01*
X170416000Y-72364362D01*
X170416000Y-71625638D01*
X170420445Y-71580501D01*
X170431819Y-71543007D01*
X170450294Y-71508443D01*
X170475153Y-71478153D01*
X170505443Y-71453294D01*
X170540007Y-71434819D01*
X170577501Y-71423445D01*
X170622638Y-71419000D01*
X171261362Y-71419000D01*
X171306499Y-71423445D01*
X171306499Y-71423445D01*
G37*
G36*
X193283500Y-72386500D02*
X191681500Y-72386500D01*
X191681500Y-70284500D01*
X193283500Y-70284500D01*
X193283500Y-72386500D01*
X193283500Y-72386500D01*
G37*
G36*
X188683500Y-72386500D02*
X187081500Y-72386500D01*
X187081500Y-70284500D01*
X188683500Y-70284500D01*
X188683500Y-72386500D01*
X188683500Y-72386500D01*
G37*
G36*
X190983500Y-72386500D02*
X189381500Y-72386500D01*
X189381500Y-70284500D01*
X190983500Y-70284500D01*
X190983500Y-72386500D01*
X190983500Y-72386500D01*
G37*
G36*
X168026004Y-70380544D02*
X168113059Y-70397860D01*
X168249732Y-70454472D01*
X168249733Y-70454473D01*
X168372738Y-70536662D01*
X168477338Y-70641262D01*
X168477340Y-70641265D01*
X168559528Y-70764268D01*
X168616140Y-70900941D01*
X168619931Y-70920000D01*
X168645000Y-71046031D01*
X168645000Y-71193969D01*
X168644207Y-71197954D01*
X168616140Y-71339059D01*
X168559528Y-71475732D01*
X168537671Y-71508443D01*
X168477338Y-71598738D01*
X168372738Y-71703338D01*
X168372735Y-71703340D01*
X168249732Y-71785528D01*
X168113059Y-71842140D01*
X168026004Y-71859456D01*
X167967969Y-71871000D01*
X167820031Y-71871000D01*
X167761996Y-71859456D01*
X167674941Y-71842140D01*
X167538268Y-71785528D01*
X167415265Y-71703340D01*
X167415262Y-71703338D01*
X167310662Y-71598738D01*
X167250329Y-71508443D01*
X167228472Y-71475732D01*
X167171860Y-71339059D01*
X167143793Y-71197954D01*
X167143000Y-71193969D01*
X167143000Y-71046031D01*
X167168069Y-70920000D01*
X167171860Y-70900941D01*
X167228472Y-70764268D01*
X167310660Y-70641265D01*
X167310662Y-70641262D01*
X167415262Y-70536662D01*
X167538267Y-70454473D01*
X167538268Y-70454472D01*
X167674941Y-70397860D01*
X167761996Y-70380544D01*
X167820031Y-70369000D01*
X167967969Y-70369000D01*
X168026004Y-70380544D01*
X168026004Y-70380544D01*
G37*
G36*
X174215500Y-71744500D02*
X172113500Y-71744500D01*
X172113500Y-70142500D01*
X174215500Y-70142500D01*
X174215500Y-71744500D01*
X174215500Y-71744500D01*
G37*
G36*
X208849083Y-67592975D02*
X208849085Y-67592976D01*
X208849086Y-67592976D01*
X209204145Y-67740046D01*
X209204146Y-67740047D01*
X209523693Y-67953561D01*
X209795439Y-68225307D01*
X209795441Y-68225310D01*
X210008954Y-68544855D01*
X210156024Y-68899914D01*
X210156025Y-68899917D01*
X210231000Y-69276842D01*
X210231000Y-69661158D01*
X210157434Y-70031000D01*
X210156024Y-70038086D01*
X210008954Y-70393145D01*
X209967976Y-70454473D01*
X209795439Y-70712693D01*
X209523693Y-70984439D01*
X209523690Y-70984441D01*
X209204145Y-71197954D01*
X208849086Y-71345024D01*
X208849085Y-71345024D01*
X208849083Y-71345025D01*
X208472158Y-71420000D01*
X208087842Y-71420000D01*
X207710917Y-71345025D01*
X207710915Y-71345024D01*
X207710914Y-71345024D01*
X207355855Y-71197954D01*
X207036310Y-70984441D01*
X207036307Y-70984439D01*
X206764561Y-70712693D01*
X206592024Y-70454473D01*
X206551046Y-70393145D01*
X206403976Y-70038086D01*
X206402567Y-70031000D01*
X206329000Y-69661158D01*
X206329000Y-69276842D01*
X206403975Y-68899917D01*
X206403976Y-68899914D01*
X206551046Y-68544855D01*
X206764559Y-68225310D01*
X206764561Y-68225307D01*
X207036307Y-67953561D01*
X207355854Y-67740047D01*
X207355855Y-67740046D01*
X207710914Y-67592976D01*
X207710915Y-67592976D01*
X207710917Y-67592975D01*
X208087842Y-67518000D01*
X208472158Y-67518000D01*
X208849083Y-67592975D01*
X208849083Y-67592975D01*
G37*
G36*
X186038499Y-69899445D02*
X186075993Y-69910819D01*
X186110557Y-69929294D01*
X186140847Y-69954153D01*
X186165706Y-69984443D01*
X186184181Y-70019007D01*
X186195555Y-70056501D01*
X186200000Y-70101638D01*
X186200000Y-70840362D01*
X186195555Y-70885499D01*
X186184181Y-70922993D01*
X186165706Y-70957557D01*
X186140847Y-70987847D01*
X186110557Y-71012706D01*
X186075993Y-71031181D01*
X186038499Y-71042555D01*
X185993362Y-71047000D01*
X185354638Y-71047000D01*
X185309501Y-71042555D01*
X185272007Y-71031181D01*
X185237443Y-71012706D01*
X185207153Y-70987847D01*
X185182294Y-70957557D01*
X185163819Y-70922993D01*
X185152445Y-70885499D01*
X185148000Y-70840362D01*
X185148000Y-70101638D01*
X185152445Y-70056501D01*
X185163819Y-70019007D01*
X185182294Y-69984443D01*
X185207153Y-69954153D01*
X185237443Y-69929294D01*
X185272007Y-69910819D01*
X185309501Y-69899445D01*
X185354638Y-69895000D01*
X185993362Y-69895000D01*
X186038499Y-69899445D01*
X186038499Y-69899445D01*
G37*
G36*
X182141499Y-69772445D02*
X182178993Y-69783819D01*
X182213557Y-69802294D01*
X182243847Y-69827153D01*
X182268706Y-69857443D01*
X182287181Y-69892007D01*
X182298555Y-69929501D01*
X182303000Y-69974638D01*
X182303000Y-70713362D01*
X182298555Y-70758499D01*
X182287181Y-70795993D01*
X182268706Y-70830557D01*
X182243847Y-70860847D01*
X182213557Y-70885706D01*
X182178993Y-70904181D01*
X182141499Y-70915555D01*
X182096362Y-70920000D01*
X181457638Y-70920000D01*
X181412501Y-70915555D01*
X181375007Y-70904181D01*
X181340443Y-70885706D01*
X181310153Y-70860847D01*
X181285294Y-70830557D01*
X181266819Y-70795993D01*
X181255445Y-70758499D01*
X181251000Y-70713362D01*
X181251000Y-69974638D01*
X181255445Y-69929501D01*
X181266819Y-69892007D01*
X181285294Y-69857443D01*
X181310153Y-69827153D01*
X181340443Y-69802294D01*
X181375007Y-69783819D01*
X181412501Y-69772445D01*
X181457638Y-69768000D01*
X182096362Y-69768000D01*
X182141499Y-69772445D01*
X182141499Y-69772445D01*
G37*
G36*
X171306499Y-69673445D02*
X171343993Y-69684819D01*
X171378557Y-69703294D01*
X171408847Y-69728153D01*
X171433706Y-69758443D01*
X171452181Y-69793007D01*
X171463555Y-69830501D01*
X171468000Y-69875638D01*
X171468000Y-70614362D01*
X171463555Y-70659499D01*
X171452181Y-70696993D01*
X171433706Y-70731557D01*
X171408847Y-70761847D01*
X171378557Y-70786706D01*
X171343993Y-70805181D01*
X171306499Y-70816555D01*
X171261362Y-70821000D01*
X170622638Y-70821000D01*
X170577501Y-70816555D01*
X170540007Y-70805181D01*
X170505443Y-70786706D01*
X170475153Y-70761847D01*
X170450294Y-70731557D01*
X170431819Y-70696993D01*
X170420445Y-70659499D01*
X170416000Y-70614362D01*
X170416000Y-69875638D01*
X170420445Y-69830501D01*
X170431819Y-69793007D01*
X170450294Y-69758443D01*
X170475153Y-69728153D01*
X170505443Y-69703294D01*
X170540007Y-69684819D01*
X170577501Y-69673445D01*
X170622638Y-69669000D01*
X171261362Y-69669000D01*
X171306499Y-69673445D01*
X171306499Y-69673445D01*
G37*
G36*
X174215500Y-69444500D02*
X172113500Y-69444500D01*
X172113500Y-67842500D01*
X174215500Y-67842500D01*
X174215500Y-69444500D01*
X174215500Y-69444500D01*
G37*
G36*
X186038499Y-68149445D02*
X186075993Y-68160819D01*
X186110557Y-68179294D01*
X186140847Y-68204153D01*
X186165706Y-68234443D01*
X186184181Y-68269007D01*
X186195555Y-68306501D01*
X186200000Y-68351638D01*
X186200000Y-69090362D01*
X186195555Y-69135499D01*
X186184181Y-69172993D01*
X186165706Y-69207557D01*
X186140847Y-69237847D01*
X186110557Y-69262706D01*
X186075993Y-69281181D01*
X186038499Y-69292555D01*
X185993362Y-69297000D01*
X185354638Y-69297000D01*
X185309501Y-69292555D01*
X185272007Y-69281181D01*
X185237443Y-69262706D01*
X185207153Y-69237847D01*
X185182294Y-69207557D01*
X185163819Y-69172993D01*
X185152445Y-69135499D01*
X185148000Y-69090362D01*
X185148000Y-68351638D01*
X185152445Y-68306501D01*
X185163819Y-68269007D01*
X185182294Y-68234443D01*
X185207153Y-68204153D01*
X185237443Y-68179294D01*
X185272007Y-68160819D01*
X185309501Y-68149445D01*
X185354638Y-68145000D01*
X185993362Y-68145000D01*
X186038499Y-68149445D01*
X186038499Y-68149445D01*
G37*
G36*
X182141499Y-68022445D02*
X182178993Y-68033819D01*
X182213557Y-68052294D01*
X182243847Y-68077153D01*
X182268706Y-68107443D01*
X182287181Y-68142007D01*
X182298555Y-68179501D01*
X182303000Y-68224638D01*
X182303000Y-68963362D01*
X182298555Y-69008499D01*
X182287181Y-69045993D01*
X182268706Y-69080557D01*
X182243847Y-69110847D01*
X182213557Y-69135706D01*
X182178993Y-69154181D01*
X182141499Y-69165555D01*
X182096362Y-69170000D01*
X181457638Y-69170000D01*
X181412501Y-69165555D01*
X181375007Y-69154181D01*
X181340443Y-69135706D01*
X181310153Y-69110847D01*
X181285294Y-69080557D01*
X181266819Y-69045993D01*
X181255445Y-69008499D01*
X181251000Y-68963362D01*
X181251000Y-68224638D01*
X181255445Y-68179501D01*
X181266819Y-68142007D01*
X181285294Y-68107443D01*
X181310153Y-68077153D01*
X181340443Y-68052294D01*
X181375007Y-68033819D01*
X181412501Y-68022445D01*
X181457638Y-68018000D01*
X182096362Y-68018000D01*
X182141499Y-68022445D01*
X182141499Y-68022445D01*
G37*
M02*
