G04 #@! TF.GenerationSoftware,KiCad,Pcbnew,5.0.2+dfsg1-1*
G04 #@! TF.CreationDate,2020-04-05T23:11:44-04:00*
G04 #@! TF.ProjectId,vreg-741,76726567-2d37-4343-912e-6b696361645f,rev?*
G04 #@! TF.SameCoordinates,Original*
G04 #@! TF.FileFunction,Soldermask,Bot*
G04 #@! TF.FilePolarity,Negative*
%FSLAX46Y46*%
G04 Gerber Fmt 4.6, Leading zero omitted, Abs format (unit mm)*
G04 Created by KiCad (PCBNEW 5.0.2+dfsg1-1) date Sun 05 Apr 2020 11:11:44 PM EDT*
%MOMM*%
%LPD*%
G01*
G04 APERTURE LIST*
%ADD10C,0.015875*%
%ADD11C,0.100000*%
G04 APERTURE END LIST*
D10*
X183105273Y-73518485D02*
X183168773Y-73518485D01*
X183138535Y-73518485D02*
X183138535Y-73482200D01*
X183105273Y-73482200D02*
X183168773Y-73482200D01*
X183108297Y-73427771D02*
X183105273Y-73433819D01*
X183105273Y-73445914D01*
X183108297Y-73451961D01*
X183114345Y-73454985D01*
X183138535Y-73454985D01*
X183144583Y-73451961D01*
X183147607Y-73445914D01*
X183147607Y-73433819D01*
X183144583Y-73427771D01*
X183138535Y-73424747D01*
X183132488Y-73424747D01*
X183126440Y-73454985D01*
X183147607Y-73355200D02*
X183105273Y-73343104D01*
X183135511Y-73331009D01*
X183105273Y-73318914D01*
X183147607Y-73306819D01*
X183105273Y-73282628D02*
X183168773Y-73282628D01*
X183105273Y-73255414D02*
X183138535Y-73255414D01*
X183144583Y-73258438D01*
X183147607Y-73264485D01*
X183147607Y-73273557D01*
X183144583Y-73279604D01*
X183141559Y-73282628D01*
X183105273Y-73216104D02*
X183108297Y-73222152D01*
X183111321Y-73225176D01*
X183117369Y-73228200D01*
X183135511Y-73228200D01*
X183141559Y-73225176D01*
X183144583Y-73222152D01*
X183147607Y-73216104D01*
X183147607Y-73207033D01*
X183144583Y-73200985D01*
X183141559Y-73197961D01*
X183135511Y-73194938D01*
X183117369Y-73194938D01*
X183111321Y-73197961D01*
X183108297Y-73200985D01*
X183105273Y-73207033D01*
X183105273Y-73216104D01*
X183105273Y-73119342D02*
X183168773Y-73119342D01*
X183105273Y-73092128D02*
X183138535Y-73092128D01*
X183144583Y-73095152D01*
X183147607Y-73101200D01*
X183147607Y-73110271D01*
X183144583Y-73116319D01*
X183141559Y-73119342D01*
X183108297Y-73037700D02*
X183105273Y-73043747D01*
X183105273Y-73055842D01*
X183108297Y-73061890D01*
X183114345Y-73064914D01*
X183138535Y-73064914D01*
X183144583Y-73061890D01*
X183147607Y-73055842D01*
X183147607Y-73043747D01*
X183144583Y-73037700D01*
X183138535Y-73034676D01*
X183132488Y-73034676D01*
X183126440Y-73064914D01*
X183108297Y-73010485D02*
X183105273Y-73004438D01*
X183105273Y-72992342D01*
X183108297Y-72986295D01*
X183114345Y-72983271D01*
X183117369Y-72983271D01*
X183123416Y-72986295D01*
X183126440Y-72992342D01*
X183126440Y-73001414D01*
X183129464Y-73007461D01*
X183135511Y-73010485D01*
X183138535Y-73010485D01*
X183144583Y-73007461D01*
X183147607Y-73001414D01*
X183147607Y-72992342D01*
X183144583Y-72986295D01*
X183105273Y-72956057D02*
X183147607Y-72956057D01*
X183168773Y-72956057D02*
X183165750Y-72959080D01*
X183162726Y-72956057D01*
X183165750Y-72953033D01*
X183168773Y-72956057D01*
X183162726Y-72956057D01*
X183108297Y-72928842D02*
X183105273Y-72922795D01*
X183105273Y-72910700D01*
X183108297Y-72904652D01*
X183114345Y-72901628D01*
X183117369Y-72901628D01*
X183123416Y-72904652D01*
X183126440Y-72910700D01*
X183126440Y-72919771D01*
X183129464Y-72925819D01*
X183135511Y-72928842D01*
X183138535Y-72928842D01*
X183144583Y-72925819D01*
X183147607Y-72919771D01*
X183147607Y-72910700D01*
X183144583Y-72904652D01*
X183147607Y-72883485D02*
X183147607Y-72859295D01*
X183168773Y-72874414D02*
X183114345Y-72874414D01*
X183108297Y-72871390D01*
X183105273Y-72865342D01*
X183105273Y-72859295D01*
X183105273Y-72810914D02*
X183138535Y-72810914D01*
X183144583Y-72813938D01*
X183147607Y-72819985D01*
X183147607Y-72832080D01*
X183144583Y-72838128D01*
X183108297Y-72810914D02*
X183105273Y-72816961D01*
X183105273Y-72832080D01*
X183108297Y-72838128D01*
X183114345Y-72841152D01*
X183120392Y-72841152D01*
X183126440Y-72838128D01*
X183129464Y-72832080D01*
X183129464Y-72816961D01*
X183132488Y-72810914D01*
X183147607Y-72789747D02*
X183147607Y-72765557D01*
X183168773Y-72780676D02*
X183114345Y-72780676D01*
X183108297Y-72777652D01*
X183105273Y-72771604D01*
X183105273Y-72765557D01*
X183108297Y-72720200D02*
X183105273Y-72726247D01*
X183105273Y-72738342D01*
X183108297Y-72744390D01*
X183114345Y-72747414D01*
X183138535Y-72747414D01*
X183144583Y-72744390D01*
X183147607Y-72738342D01*
X183147607Y-72726247D01*
X183144583Y-72720200D01*
X183138535Y-72717176D01*
X183132488Y-72717176D01*
X183126440Y-72747414D01*
X183108297Y-72692985D02*
X183105273Y-72686938D01*
X183105273Y-72674842D01*
X183108297Y-72668795D01*
X183114345Y-72665771D01*
X183117369Y-72665771D01*
X183123416Y-72668795D01*
X183126440Y-72674842D01*
X183126440Y-72683914D01*
X183129464Y-72689961D01*
X183135511Y-72692985D01*
X183138535Y-72692985D01*
X183144583Y-72689961D01*
X183147607Y-72683914D01*
X183147607Y-72674842D01*
X183144583Y-72668795D01*
X183105273Y-72590176D02*
X183147607Y-72590176D01*
X183168773Y-72590176D02*
X183165750Y-72593200D01*
X183162726Y-72590176D01*
X183165750Y-72587152D01*
X183168773Y-72590176D01*
X183162726Y-72590176D01*
X183108297Y-72562961D02*
X183105273Y-72556914D01*
X183105273Y-72544819D01*
X183108297Y-72538771D01*
X183114345Y-72535747D01*
X183117369Y-72535747D01*
X183123416Y-72538771D01*
X183126440Y-72544819D01*
X183126440Y-72553890D01*
X183129464Y-72559938D01*
X183135511Y-72562961D01*
X183138535Y-72562961D01*
X183144583Y-72559938D01*
X183147607Y-72553890D01*
X183147607Y-72544819D01*
X183144583Y-72538771D01*
X183108297Y-72463176D02*
X183105273Y-72457128D01*
X183105273Y-72445033D01*
X183108297Y-72438985D01*
X183114345Y-72435961D01*
X183117369Y-72435961D01*
X183123416Y-72438985D01*
X183126440Y-72445033D01*
X183126440Y-72454104D01*
X183129464Y-72460152D01*
X183135511Y-72463176D01*
X183138535Y-72463176D01*
X183144583Y-72460152D01*
X183147607Y-72454104D01*
X183147607Y-72445033D01*
X183144583Y-72438985D01*
X183105273Y-72399676D02*
X183108297Y-72405723D01*
X183111321Y-72408747D01*
X183117369Y-72411771D01*
X183135511Y-72411771D01*
X183141559Y-72408747D01*
X183144583Y-72405723D01*
X183147607Y-72399676D01*
X183147607Y-72390604D01*
X183144583Y-72384557D01*
X183141559Y-72381533D01*
X183135511Y-72378509D01*
X183117369Y-72378509D01*
X183111321Y-72381533D01*
X183108297Y-72384557D01*
X183105273Y-72390604D01*
X183105273Y-72399676D01*
X183105273Y-72351295D02*
X183147607Y-72351295D01*
X183141559Y-72351295D02*
X183144583Y-72348271D01*
X183147607Y-72342223D01*
X183147607Y-72333152D01*
X183144583Y-72327104D01*
X183138535Y-72324080D01*
X183105273Y-72324080D01*
X183138535Y-72324080D02*
X183144583Y-72321057D01*
X183147607Y-72315009D01*
X183147607Y-72305938D01*
X183144583Y-72299890D01*
X183138535Y-72296866D01*
X183105273Y-72296866D01*
X183108297Y-72242438D02*
X183105273Y-72248485D01*
X183105273Y-72260580D01*
X183108297Y-72266628D01*
X183114345Y-72269652D01*
X183138535Y-72269652D01*
X183144583Y-72266628D01*
X183147607Y-72260580D01*
X183147607Y-72248485D01*
X183144583Y-72242438D01*
X183138535Y-72239414D01*
X183132488Y-72239414D01*
X183126440Y-72269652D01*
X183147607Y-72221271D02*
X183147607Y-72197080D01*
X183168773Y-72212200D02*
X183114345Y-72212200D01*
X183108297Y-72209176D01*
X183105273Y-72203128D01*
X183105273Y-72197080D01*
X183105273Y-72175914D02*
X183147607Y-72175914D01*
X183168773Y-72175914D02*
X183165750Y-72178938D01*
X183162726Y-72175914D01*
X183165750Y-72172890D01*
X183168773Y-72175914D01*
X183162726Y-72175914D01*
X183105273Y-72145676D02*
X183147607Y-72145676D01*
X183141559Y-72145676D02*
X183144583Y-72142652D01*
X183147607Y-72136604D01*
X183147607Y-72127533D01*
X183144583Y-72121485D01*
X183138535Y-72118461D01*
X183105273Y-72118461D01*
X183138535Y-72118461D02*
X183144583Y-72115438D01*
X183147607Y-72109390D01*
X183147607Y-72100319D01*
X183144583Y-72094271D01*
X183138535Y-72091247D01*
X183105273Y-72091247D01*
X183108297Y-72036819D02*
X183105273Y-72042866D01*
X183105273Y-72054961D01*
X183108297Y-72061009D01*
X183114345Y-72064033D01*
X183138535Y-72064033D01*
X183144583Y-72061009D01*
X183147607Y-72054961D01*
X183147607Y-72042866D01*
X183144583Y-72036819D01*
X183138535Y-72033795D01*
X183132488Y-72033795D01*
X183126440Y-72064033D01*
X183108297Y-72009604D02*
X183105273Y-72003557D01*
X183105273Y-71991461D01*
X183108297Y-71985414D01*
X183114345Y-71982390D01*
X183117369Y-71982390D01*
X183123416Y-71985414D01*
X183126440Y-71991461D01*
X183126440Y-72000533D01*
X183129464Y-72006580D01*
X183135511Y-72009604D01*
X183138535Y-72009604D01*
X183144583Y-72006580D01*
X183147607Y-72000533D01*
X183147607Y-71991461D01*
X183144583Y-71985414D01*
X183108297Y-71909819D02*
X183105273Y-71903771D01*
X183105273Y-71891676D01*
X183108297Y-71885628D01*
X183114345Y-71882604D01*
X183117369Y-71882604D01*
X183123416Y-71885628D01*
X183126440Y-71891676D01*
X183126440Y-71900747D01*
X183129464Y-71906795D01*
X183135511Y-71909819D01*
X183138535Y-71909819D01*
X183144583Y-71906795D01*
X183147607Y-71900747D01*
X183147607Y-71891676D01*
X183144583Y-71885628D01*
X183105273Y-71828176D02*
X183138535Y-71828176D01*
X183144583Y-71831200D01*
X183147607Y-71837247D01*
X183147607Y-71849342D01*
X183144583Y-71855390D01*
X183108297Y-71828176D02*
X183105273Y-71834223D01*
X183105273Y-71849342D01*
X183108297Y-71855390D01*
X183114345Y-71858414D01*
X183120392Y-71858414D01*
X183126440Y-71855390D01*
X183129464Y-71849342D01*
X183129464Y-71834223D01*
X183132488Y-71828176D01*
X183147607Y-71803985D02*
X183105273Y-71788866D01*
X183147607Y-71773747D01*
X183108297Y-71725366D02*
X183105273Y-71731414D01*
X183105273Y-71743509D01*
X183108297Y-71749557D01*
X183114345Y-71752580D01*
X183138535Y-71752580D01*
X183144583Y-71749557D01*
X183147607Y-71743509D01*
X183147607Y-71731414D01*
X183144583Y-71725366D01*
X183138535Y-71722342D01*
X183132488Y-71722342D01*
X183126440Y-71752580D01*
X183105273Y-71667914D02*
X183168773Y-71667914D01*
X183108297Y-71667914D02*
X183105273Y-71673961D01*
X183105273Y-71686057D01*
X183108297Y-71692104D01*
X183111321Y-71695128D01*
X183117369Y-71698152D01*
X183135511Y-71698152D01*
X183141559Y-71695128D01*
X183144583Y-71692104D01*
X183147607Y-71686057D01*
X183147607Y-71673961D01*
X183144583Y-71667914D01*
D11*
G36*
X168717083Y-86515975D02*
X168717085Y-86515976D01*
X168717086Y-86515976D01*
X169072145Y-86663046D01*
X169072146Y-86663047D01*
X169391693Y-86876561D01*
X169663439Y-87148307D01*
X169663441Y-87148310D01*
X169876954Y-87467855D01*
X170011196Y-87791944D01*
X170024025Y-87822917D01*
X170099000Y-88199842D01*
X170099000Y-88584158D01*
X170069366Y-88733140D01*
X170024024Y-88961086D01*
X169876954Y-89316145D01*
X169876953Y-89316146D01*
X169663439Y-89635693D01*
X169391693Y-89907439D01*
X169391690Y-89907441D01*
X169072145Y-90120954D01*
X168717086Y-90268024D01*
X168717085Y-90268024D01*
X168717083Y-90268025D01*
X168340158Y-90343000D01*
X167955842Y-90343000D01*
X167578917Y-90268025D01*
X167578915Y-90268024D01*
X167578914Y-90268024D01*
X167223855Y-90120954D01*
X166904310Y-89907441D01*
X166904307Y-89907439D01*
X166632561Y-89635693D01*
X166419047Y-89316146D01*
X166419046Y-89316145D01*
X166271976Y-88961086D01*
X166226635Y-88733140D01*
X166197000Y-88584158D01*
X166197000Y-88199842D01*
X166271975Y-87822917D01*
X166284804Y-87791944D01*
X166419046Y-87467855D01*
X166632559Y-87148310D01*
X166632561Y-87148307D01*
X166904307Y-86876561D01*
X167223854Y-86663047D01*
X167223855Y-86663046D01*
X167578914Y-86515976D01*
X167578915Y-86515976D01*
X167578917Y-86515975D01*
X167955842Y-86441000D01*
X168340158Y-86441000D01*
X168717083Y-86515975D01*
X168717083Y-86515975D01*
G37*
G36*
X192537004Y-87271544D02*
X192624059Y-87288860D01*
X192760732Y-87345472D01*
X192760733Y-87345473D01*
X192883738Y-87427662D01*
X192988338Y-87532262D01*
X192988340Y-87532265D01*
X193070528Y-87655268D01*
X193127140Y-87791941D01*
X193156000Y-87937033D01*
X193156000Y-88084967D01*
X193127140Y-88230059D01*
X193070528Y-88366732D01*
X193070527Y-88366733D01*
X192988338Y-88489738D01*
X192883738Y-88594338D01*
X192883735Y-88594340D01*
X192760732Y-88676528D01*
X192624059Y-88733140D01*
X192537004Y-88750456D01*
X192478969Y-88762000D01*
X192331031Y-88762000D01*
X192272996Y-88750456D01*
X192185941Y-88733140D01*
X192049268Y-88676528D01*
X191926265Y-88594340D01*
X191926262Y-88594338D01*
X191821662Y-88489738D01*
X191739473Y-88366733D01*
X191739472Y-88366732D01*
X191682860Y-88230059D01*
X191654000Y-88084967D01*
X191654000Y-87937033D01*
X191682860Y-87791941D01*
X191739472Y-87655268D01*
X191821660Y-87532265D01*
X191821662Y-87532262D01*
X191926262Y-87427662D01*
X192049267Y-87345473D01*
X192049268Y-87345472D01*
X192185941Y-87288860D01*
X192272996Y-87271544D01*
X192331031Y-87260000D01*
X192478969Y-87260000D01*
X192537004Y-87271544D01*
X192537004Y-87271544D01*
G37*
G36*
X181996004Y-87271544D02*
X182083059Y-87288860D01*
X182219732Y-87345472D01*
X182219733Y-87345473D01*
X182342738Y-87427662D01*
X182447338Y-87532262D01*
X182447340Y-87532265D01*
X182529528Y-87655268D01*
X182586140Y-87791941D01*
X182615000Y-87937033D01*
X182615000Y-88084967D01*
X182586140Y-88230059D01*
X182529528Y-88366732D01*
X182529527Y-88366733D01*
X182447338Y-88489738D01*
X182342738Y-88594338D01*
X182342735Y-88594340D01*
X182219732Y-88676528D01*
X182083059Y-88733140D01*
X181996004Y-88750456D01*
X181937969Y-88762000D01*
X181790031Y-88762000D01*
X181731996Y-88750456D01*
X181644941Y-88733140D01*
X181508268Y-88676528D01*
X181385265Y-88594340D01*
X181385262Y-88594338D01*
X181280662Y-88489738D01*
X181198473Y-88366733D01*
X181198472Y-88366732D01*
X181141860Y-88230059D01*
X181113000Y-88084967D01*
X181113000Y-87937033D01*
X181141860Y-87791941D01*
X181198472Y-87655268D01*
X181280660Y-87532265D01*
X181280662Y-87532262D01*
X181385262Y-87427662D01*
X181508267Y-87345473D01*
X181508268Y-87345472D01*
X181644941Y-87288860D01*
X181731996Y-87271544D01*
X181790031Y-87260000D01*
X181937969Y-87260000D01*
X181996004Y-87271544D01*
X181996004Y-87271544D01*
G37*
G36*
X178818269Y-87260000D02*
X178908059Y-87277860D01*
X179044732Y-87334472D01*
X179061196Y-87345473D01*
X179167738Y-87416662D01*
X179272338Y-87521262D01*
X179272340Y-87521265D01*
X179354528Y-87644268D01*
X179411140Y-87780941D01*
X179440000Y-87926033D01*
X179440000Y-88073967D01*
X179411140Y-88219059D01*
X179354528Y-88355732D01*
X179354527Y-88355733D01*
X179272338Y-88478738D01*
X179167738Y-88583338D01*
X179167735Y-88583340D01*
X179044732Y-88665528D01*
X178908059Y-88722140D01*
X178821004Y-88739456D01*
X178762969Y-88751000D01*
X178615031Y-88751000D01*
X178556996Y-88739456D01*
X178469941Y-88722140D01*
X178333268Y-88665528D01*
X178210265Y-88583340D01*
X178210262Y-88583338D01*
X178105662Y-88478738D01*
X178023473Y-88355733D01*
X178023472Y-88355732D01*
X177966860Y-88219059D01*
X177938000Y-88073967D01*
X177938000Y-87926033D01*
X177966860Y-87780941D01*
X178023472Y-87644268D01*
X178105660Y-87521265D01*
X178105662Y-87521262D01*
X178210262Y-87416662D01*
X178316804Y-87345473D01*
X178333268Y-87334472D01*
X178469941Y-87277860D01*
X178559731Y-87260000D01*
X178615031Y-87249000D01*
X178762969Y-87249000D01*
X178818269Y-87260000D01*
X178818269Y-87260000D01*
G37*
G36*
X201045800Y-88574600D02*
X198343800Y-88574600D01*
X198343800Y-85872600D01*
X201045800Y-85872600D01*
X201045800Y-88574600D01*
X201045800Y-88574600D01*
G37*
G36*
X175396567Y-81732959D02*
X175527072Y-81758918D01*
X175772939Y-81860759D01*
X175993464Y-82008110D01*
X175994215Y-82008612D01*
X176182388Y-82196785D01*
X176182390Y-82196788D01*
X176330241Y-82418061D01*
X176379785Y-82537672D01*
X176432082Y-82663929D01*
X176484000Y-82924937D01*
X176484000Y-83191063D01*
X176458041Y-83321567D01*
X176432082Y-83452072D01*
X176330241Y-83697939D01*
X176182890Y-83918464D01*
X176182388Y-83919215D01*
X175994215Y-84107388D01*
X175994212Y-84107390D01*
X175772939Y-84255241D01*
X175527072Y-84357082D01*
X175396567Y-84383041D01*
X175266063Y-84409000D01*
X174999937Y-84409000D01*
X174869433Y-84383041D01*
X174738928Y-84357082D01*
X174493061Y-84255241D01*
X174271788Y-84107390D01*
X174271785Y-84107388D01*
X174083612Y-83919215D01*
X174083110Y-83918464D01*
X173935759Y-83697939D01*
X173833918Y-83452072D01*
X173807959Y-83321567D01*
X173782000Y-83191063D01*
X173782000Y-82924937D01*
X173833918Y-82663929D01*
X173886215Y-82537672D01*
X173935759Y-82418061D01*
X174083610Y-82196788D01*
X174083612Y-82196785D01*
X174271785Y-82008612D01*
X174272536Y-82008110D01*
X174493061Y-81860759D01*
X174738928Y-81758918D01*
X174869433Y-81732959D01*
X174999937Y-81707000D01*
X175266063Y-81707000D01*
X175396567Y-81732959D01*
X175396567Y-81732959D01*
G37*
G36*
X199958367Y-80818559D02*
X200088872Y-80844518D01*
X200334739Y-80946359D01*
X200555264Y-81093710D01*
X200556015Y-81094212D01*
X200744188Y-81282385D01*
X200744190Y-81282388D01*
X200892041Y-81503661D01*
X200976266Y-81707000D01*
X200993882Y-81749529D01*
X201045417Y-82008610D01*
X201045800Y-82010538D01*
X201045800Y-82276662D01*
X200993882Y-82537672D01*
X200892041Y-82783539D01*
X200744690Y-83004064D01*
X200744188Y-83004815D01*
X200556015Y-83192988D01*
X200556012Y-83192990D01*
X200334739Y-83340841D01*
X200088872Y-83442682D01*
X200041670Y-83452071D01*
X199827863Y-83494600D01*
X199561737Y-83494600D01*
X199347930Y-83452071D01*
X199300728Y-83442682D01*
X199054861Y-83340841D01*
X198833588Y-83192990D01*
X198833585Y-83192988D01*
X198645412Y-83004815D01*
X198644910Y-83004064D01*
X198497559Y-82783539D01*
X198395718Y-82537672D01*
X198343800Y-82276662D01*
X198343800Y-82010538D01*
X198344184Y-82008610D01*
X198395718Y-81749529D01*
X198413334Y-81707000D01*
X198497559Y-81503661D01*
X198645410Y-81282388D01*
X198645412Y-81282385D01*
X198833585Y-81094212D01*
X198834336Y-81093710D01*
X199054861Y-80946359D01*
X199300728Y-80844518D01*
X199431233Y-80818559D01*
X199561737Y-80792600D01*
X199827863Y-80792600D01*
X199958367Y-80818559D01*
X199958367Y-80818559D01*
G37*
G36*
X176484000Y-79329000D02*
X173782000Y-79329000D01*
X173782000Y-76627000D01*
X176484000Y-76627000D01*
X176484000Y-79329000D01*
X176484000Y-79329000D01*
G37*
G36*
X168026004Y-70380544D02*
X168113059Y-70397860D01*
X168249732Y-70454472D01*
X168249733Y-70454473D01*
X168372738Y-70536662D01*
X168477338Y-70641262D01*
X168477340Y-70641265D01*
X168559528Y-70764268D01*
X168616140Y-70900941D01*
X168632748Y-70984439D01*
X168645000Y-71046031D01*
X168645000Y-71193969D01*
X168644207Y-71197954D01*
X168616140Y-71339059D01*
X168559528Y-71475732D01*
X168559527Y-71475733D01*
X168477338Y-71598738D01*
X168372738Y-71703338D01*
X168372735Y-71703340D01*
X168249732Y-71785528D01*
X168113059Y-71842140D01*
X168026004Y-71859456D01*
X167967969Y-71871000D01*
X167820031Y-71871000D01*
X167761996Y-71859456D01*
X167674941Y-71842140D01*
X167538268Y-71785528D01*
X167415265Y-71703340D01*
X167415262Y-71703338D01*
X167310662Y-71598738D01*
X167228473Y-71475733D01*
X167228472Y-71475732D01*
X167171860Y-71339059D01*
X167143793Y-71197954D01*
X167143000Y-71193969D01*
X167143000Y-71046031D01*
X167155252Y-70984439D01*
X167171860Y-70900941D01*
X167228472Y-70764268D01*
X167310660Y-70641265D01*
X167310662Y-70641262D01*
X167415262Y-70536662D01*
X167538267Y-70454473D01*
X167538268Y-70454472D01*
X167674941Y-70397860D01*
X167761996Y-70380544D01*
X167820031Y-70369000D01*
X167967969Y-70369000D01*
X168026004Y-70380544D01*
X168026004Y-70380544D01*
G37*
G36*
X208849083Y-67592975D02*
X208849085Y-67592976D01*
X208849086Y-67592976D01*
X209204145Y-67740046D01*
X209204146Y-67740047D01*
X209523693Y-67953561D01*
X209795439Y-68225307D01*
X209795441Y-68225310D01*
X210008954Y-68544855D01*
X210156024Y-68899914D01*
X210231000Y-69276843D01*
X210231000Y-69661157D01*
X210156024Y-70038086D01*
X210008954Y-70393145D01*
X209967976Y-70454473D01*
X209795439Y-70712693D01*
X209523693Y-70984439D01*
X209523690Y-70984441D01*
X209204145Y-71197954D01*
X208849086Y-71345024D01*
X208849085Y-71345024D01*
X208849083Y-71345025D01*
X208472158Y-71420000D01*
X208087842Y-71420000D01*
X207710917Y-71345025D01*
X207710915Y-71345024D01*
X207710914Y-71345024D01*
X207355855Y-71197954D01*
X207036310Y-70984441D01*
X207036307Y-70984439D01*
X206764561Y-70712693D01*
X206592024Y-70454473D01*
X206551046Y-70393145D01*
X206403976Y-70038086D01*
X206329000Y-69661157D01*
X206329000Y-69276843D01*
X206403976Y-68899914D01*
X206551046Y-68544855D01*
X206764559Y-68225310D01*
X206764561Y-68225307D01*
X207036307Y-67953561D01*
X207355854Y-67740047D01*
X207355855Y-67740046D01*
X207710914Y-67592976D01*
X207710915Y-67592976D01*
X207710917Y-67592975D01*
X208087842Y-67518000D01*
X208472158Y-67518000D01*
X208849083Y-67592975D01*
X208849083Y-67592975D01*
G37*
M02*
