G04 #@! TF.GenerationSoftware,KiCad,Pcbnew,5.0.2+dfsg1-1*
G04 #@! TF.CreationDate,2020-04-05T02:10:05-04:00*
G04 #@! TF.ProjectId,vreg-741,76726567-2d37-4343-912e-6b696361645f,rev?*
G04 #@! TF.SameCoordinates,Original*
G04 #@! TF.FileFunction,Copper,L2,Bot*
G04 #@! TF.FilePolarity,Positive*
%FSLAX46Y46*%
G04 Gerber Fmt 4.6, Leading zero omitted, Abs format (unit mm)*
G04 Created by KiCad (PCBNEW 5.0.2+dfsg1-1) date Sun 05 Apr 2020 02:10:05 AM EDT*
%MOMM*%
%LPD*%
G01*
G04 APERTURE LIST*
G04 #@! TA.AperFunction,ComponentPad*
%ADD10C,2.600000*%
G04 #@! TD*
G04 #@! TA.AperFunction,ComponentPad*
%ADD11R,2.600000X2.600000*%
G04 #@! TD*
G04 #@! TA.AperFunction,ComponentPad*
%ADD12C,1.400000*%
G04 #@! TD*
G04 #@! TA.AperFunction,ComponentPad*
%ADD13C,3.800000*%
G04 #@! TD*
G04 #@! TA.AperFunction,ViaPad*
%ADD14C,0.800000*%
G04 #@! TD*
G04 #@! TA.AperFunction,Conductor*
%ADD15C,0.250000*%
G04 #@! TD*
G04 #@! TA.AperFunction,Conductor*
%ADD16C,0.254000*%
G04 #@! TD*
G04 APERTURE END LIST*
D10*
G04 #@! TO.P,J2,2*
G04 #@! TO.N,GND*
X199694800Y-82143600D03*
D11*
G04 #@! TO.P,J2,1*
G04 #@! TO.N,LINE*
X199694800Y-87223600D03*
G04 #@! TD*
D12*
G04 #@! TO.P,VFB,1*
G04 #@! TO.N,/VFB*
X181864000Y-88011000D03*
G04 #@! TD*
D13*
G04 #@! TO.P,H2,1*
G04 #@! TO.N,GND*
X168148000Y-88392000D03*
G04 #@! TD*
G04 #@! TO.P,H3,1*
G04 #@! TO.N,GND*
X208280000Y-69469000D03*
G04 #@! TD*
D11*
G04 #@! TO.P,J1,1*
G04 #@! TO.N,GND*
X175133000Y-77978000D03*
D10*
G04 #@! TO.P,J1,2*
G04 #@! TO.N,/VIN*
X175133000Y-83058000D03*
G04 #@! TD*
D12*
G04 #@! TO.P,VIN,1*
G04 #@! TO.N,/VIN*
X178689000Y-88000000D03*
G04 #@! TD*
G04 #@! TO.P,VBUS,1*
G04 #@! TO.N,VBUS*
X167894000Y-71120000D03*
G04 #@! TD*
G04 #@! TO.P,LINE,1*
G04 #@! TO.N,LINE*
X192405000Y-88011000D03*
G04 #@! TD*
D14*
G04 #@! TO.N,VBUS*
X183896000Y-74168000D03*
X184404000Y-70358000D03*
G04 #@! TO.N,GND*
X184404000Y-68834000D03*
X186817000Y-77851000D03*
X186817000Y-84963000D03*
X189674500Y-83121500D03*
G04 #@! TD*
D15*
G04 #@! TO.N,VBUS*
X183134000Y-73406000D02*
X183896000Y-74168000D01*
X184404000Y-70358000D02*
X183134000Y-71628000D01*
X183134000Y-71628000D02*
X183134000Y-73406000D01*
G04 #@! TD*
D16*
G04 #@! TO.N,GND*
G36*
X168075612Y-67283000D02*
X206920491Y-67283000D01*
X206865353Y-67305839D01*
X206656775Y-67666170D01*
X208280000Y-69289395D01*
X208294143Y-69275253D01*
X208473748Y-69454858D01*
X208459605Y-69469000D01*
X210082830Y-71092225D01*
X210443161Y-70883647D01*
X210618001Y-70449454D01*
X210618000Y-88350752D01*
X210550612Y-88928751D01*
X210366234Y-89436705D01*
X210069941Y-89888625D01*
X209677636Y-90260259D01*
X209210354Y-90531677D01*
X208683867Y-90691134D01*
X208248381Y-90730000D01*
X169140548Y-90730000D01*
X169562647Y-90555161D01*
X169771225Y-90194830D01*
X168148000Y-88571605D01*
X168133858Y-88585748D01*
X167954253Y-88406143D01*
X167968395Y-88392000D01*
X168327605Y-88392000D01*
X169950830Y-90015225D01*
X170311161Y-89806647D01*
X170687862Y-88871157D01*
X170677892Y-87862721D01*
X170624762Y-87734452D01*
X177354000Y-87734452D01*
X177354000Y-88265548D01*
X177557242Y-88756217D01*
X177932783Y-89131758D01*
X178423452Y-89335000D01*
X178954548Y-89335000D01*
X179445217Y-89131758D01*
X179820758Y-88756217D01*
X180024000Y-88265548D01*
X180024000Y-87745452D01*
X180529000Y-87745452D01*
X180529000Y-88276548D01*
X180732242Y-88767217D01*
X181107783Y-89142758D01*
X181598452Y-89346000D01*
X182129548Y-89346000D01*
X182620217Y-89142758D01*
X182995758Y-88767217D01*
X183199000Y-88276548D01*
X183199000Y-87745452D01*
X191070000Y-87745452D01*
X191070000Y-88276548D01*
X191273242Y-88767217D01*
X191648783Y-89142758D01*
X192139452Y-89346000D01*
X192670548Y-89346000D01*
X193161217Y-89142758D01*
X193536758Y-88767217D01*
X193740000Y-88276548D01*
X193740000Y-87745452D01*
X193536758Y-87254783D01*
X193161217Y-86879242D01*
X192670548Y-86676000D01*
X192139452Y-86676000D01*
X191648783Y-86879242D01*
X191273242Y-87254783D01*
X191070000Y-87745452D01*
X183199000Y-87745452D01*
X182995758Y-87254783D01*
X182620217Y-86879242D01*
X182129548Y-86676000D01*
X181598452Y-86676000D01*
X181107783Y-86879242D01*
X180732242Y-87254783D01*
X180529000Y-87745452D01*
X180024000Y-87745452D01*
X180024000Y-87734452D01*
X179820758Y-87243783D01*
X179445217Y-86868242D01*
X178954548Y-86665000D01*
X178423452Y-86665000D01*
X177932783Y-86868242D01*
X177557242Y-87243783D01*
X177354000Y-87734452D01*
X170624762Y-87734452D01*
X170311161Y-86977353D01*
X169950830Y-86768775D01*
X168327605Y-88392000D01*
X167968395Y-88392000D01*
X166345170Y-86768775D01*
X165984839Y-86977353D01*
X165810000Y-87411544D01*
X165810000Y-86589170D01*
X166524775Y-86589170D01*
X168148000Y-88212395D01*
X169771225Y-86589170D01*
X169562647Y-86228839D01*
X168804624Y-85923600D01*
X197747360Y-85923600D01*
X197747360Y-88523600D01*
X197796643Y-88771365D01*
X197936991Y-88981409D01*
X198147035Y-89121757D01*
X198394800Y-89171040D01*
X200994800Y-89171040D01*
X201242565Y-89121757D01*
X201452609Y-88981409D01*
X201592957Y-88771365D01*
X201642240Y-88523600D01*
X201642240Y-85923600D01*
X201592957Y-85675835D01*
X201452609Y-85465791D01*
X201242565Y-85325443D01*
X200994800Y-85276160D01*
X198394800Y-85276160D01*
X198147035Y-85325443D01*
X197936991Y-85465791D01*
X197796643Y-85675835D01*
X197747360Y-85923600D01*
X168804624Y-85923600D01*
X168627157Y-85852138D01*
X167618721Y-85862108D01*
X166733353Y-86228839D01*
X166524775Y-86589170D01*
X165810000Y-86589170D01*
X165810000Y-82673105D01*
X173198000Y-82673105D01*
X173198000Y-83442895D01*
X173492586Y-84154090D01*
X174036910Y-84698414D01*
X174748105Y-84993000D01*
X175517895Y-84993000D01*
X176229090Y-84698414D01*
X176773414Y-84154090D01*
X177038937Y-83513059D01*
X198504946Y-83513059D01*
X198640304Y-83811055D01*
X199358680Y-84087666D01*
X200128227Y-84068310D01*
X200749296Y-83811055D01*
X200884654Y-83513059D01*
X199694800Y-82323205D01*
X198504946Y-83513059D01*
X177038937Y-83513059D01*
X177068000Y-83442895D01*
X177068000Y-82673105D01*
X176773414Y-81961910D01*
X176618984Y-81807480D01*
X197750734Y-81807480D01*
X197770090Y-82577027D01*
X198027345Y-83198096D01*
X198325341Y-83333454D01*
X199515195Y-82143600D01*
X199874405Y-82143600D01*
X201064259Y-83333454D01*
X201362255Y-83198096D01*
X201638866Y-82479720D01*
X201619510Y-81710173D01*
X201362255Y-81089104D01*
X201064259Y-80953746D01*
X199874405Y-82143600D01*
X199515195Y-82143600D01*
X198325341Y-80953746D01*
X198027345Y-81089104D01*
X197750734Y-81807480D01*
X176618984Y-81807480D01*
X176229090Y-81417586D01*
X175517895Y-81123000D01*
X174748105Y-81123000D01*
X174036910Y-81417586D01*
X173492586Y-81961910D01*
X173198000Y-82673105D01*
X165810000Y-82673105D01*
X165810000Y-80774141D01*
X198504946Y-80774141D01*
X199694800Y-81963995D01*
X200884654Y-80774141D01*
X200749296Y-80476145D01*
X200030920Y-80199534D01*
X199261373Y-80218890D01*
X198640304Y-80476145D01*
X198504946Y-80774141D01*
X165810000Y-80774141D01*
X165810000Y-78263750D01*
X173198000Y-78263750D01*
X173198000Y-79404309D01*
X173294673Y-79637698D01*
X173473301Y-79816327D01*
X173706690Y-79913000D01*
X174847250Y-79913000D01*
X175006000Y-79754250D01*
X175006000Y-78105000D01*
X175260000Y-78105000D01*
X175260000Y-79754250D01*
X175418750Y-79913000D01*
X176559310Y-79913000D01*
X176792699Y-79816327D01*
X176971327Y-79637698D01*
X177068000Y-79404309D01*
X177068000Y-78263750D01*
X176909250Y-78105000D01*
X175260000Y-78105000D01*
X175006000Y-78105000D01*
X173356750Y-78105000D01*
X173198000Y-78263750D01*
X165810000Y-78263750D01*
X165810000Y-76551691D01*
X173198000Y-76551691D01*
X173198000Y-77692250D01*
X173356750Y-77851000D01*
X175006000Y-77851000D01*
X175006000Y-76201750D01*
X175260000Y-76201750D01*
X175260000Y-77851000D01*
X176909250Y-77851000D01*
X177068000Y-77692250D01*
X177068000Y-76551691D01*
X176971327Y-76318302D01*
X176792699Y-76139673D01*
X176559310Y-76043000D01*
X175418750Y-76043000D01*
X175260000Y-76201750D01*
X175006000Y-76201750D01*
X174847250Y-76043000D01*
X173706690Y-76043000D01*
X173473301Y-76139673D01*
X173294673Y-76318302D01*
X173198000Y-76551691D01*
X165810000Y-76551691D01*
X165810000Y-70854452D01*
X166559000Y-70854452D01*
X166559000Y-71385548D01*
X166762242Y-71876217D01*
X167137783Y-72251758D01*
X167628452Y-72455000D01*
X168159548Y-72455000D01*
X168650217Y-72251758D01*
X169025758Y-71876217D01*
X169128572Y-71628000D01*
X182359112Y-71628000D01*
X182374000Y-71702847D01*
X182374001Y-73331148D01*
X182359112Y-73406000D01*
X182374001Y-73480852D01*
X182418097Y-73702537D01*
X182586072Y-73953929D01*
X182649528Y-73996329D01*
X182861000Y-74207801D01*
X182861000Y-74373874D01*
X183018569Y-74754280D01*
X183309720Y-75045431D01*
X183690126Y-75203000D01*
X184101874Y-75203000D01*
X184482280Y-75045431D01*
X184773431Y-74754280D01*
X184931000Y-74373874D01*
X184931000Y-73962126D01*
X184773431Y-73581720D01*
X184482280Y-73290569D01*
X184101874Y-73133000D01*
X183935801Y-73133000D01*
X183894000Y-73091199D01*
X183894000Y-71942801D01*
X184443802Y-71393000D01*
X184609874Y-71393000D01*
X184902404Y-71271830D01*
X206656775Y-71271830D01*
X206865353Y-71632161D01*
X207800843Y-72008862D01*
X208809279Y-71998892D01*
X209694647Y-71632161D01*
X209903225Y-71271830D01*
X208280000Y-69648605D01*
X206656775Y-71271830D01*
X184902404Y-71271830D01*
X184990280Y-71235431D01*
X185281431Y-70944280D01*
X185439000Y-70563874D01*
X185439000Y-70152126D01*
X185281431Y-69771720D01*
X184990280Y-69480569D01*
X184609874Y-69323000D01*
X184198126Y-69323000D01*
X183817720Y-69480569D01*
X183526569Y-69771720D01*
X183369000Y-70152126D01*
X183369000Y-70318198D01*
X182649530Y-71037669D01*
X182586071Y-71080071D01*
X182418096Y-71331464D01*
X182374000Y-71553149D01*
X182374000Y-71553153D01*
X182359112Y-71628000D01*
X169128572Y-71628000D01*
X169229000Y-71385548D01*
X169229000Y-70854452D01*
X169025758Y-70363783D01*
X168650217Y-69988242D01*
X168159548Y-69785000D01*
X167628452Y-69785000D01*
X167137783Y-69988242D01*
X166762242Y-70363783D01*
X166559000Y-70854452D01*
X165810000Y-70854452D01*
X165810000Y-69637248D01*
X165877388Y-69059249D01*
X165902581Y-68989843D01*
X205740138Y-68989843D01*
X205750108Y-69998279D01*
X206116839Y-70883647D01*
X206477170Y-71092225D01*
X208100395Y-69469000D01*
X206477170Y-67845775D01*
X206116839Y-68054353D01*
X205740138Y-68989843D01*
X165902581Y-68989843D01*
X166061766Y-68551295D01*
X166358057Y-68099376D01*
X166750364Y-67727742D01*
X167217641Y-67456325D01*
X167744132Y-67296866D01*
X168021067Y-67272150D01*
X168075612Y-67283000D01*
X168075612Y-67283000D01*
G37*
X168075612Y-67283000D02*
X206920491Y-67283000D01*
X206865353Y-67305839D01*
X206656775Y-67666170D01*
X208280000Y-69289395D01*
X208294143Y-69275253D01*
X208473748Y-69454858D01*
X208459605Y-69469000D01*
X210082830Y-71092225D01*
X210443161Y-70883647D01*
X210618001Y-70449454D01*
X210618000Y-88350752D01*
X210550612Y-88928751D01*
X210366234Y-89436705D01*
X210069941Y-89888625D01*
X209677636Y-90260259D01*
X209210354Y-90531677D01*
X208683867Y-90691134D01*
X208248381Y-90730000D01*
X169140548Y-90730000D01*
X169562647Y-90555161D01*
X169771225Y-90194830D01*
X168148000Y-88571605D01*
X168133858Y-88585748D01*
X167954253Y-88406143D01*
X167968395Y-88392000D01*
X168327605Y-88392000D01*
X169950830Y-90015225D01*
X170311161Y-89806647D01*
X170687862Y-88871157D01*
X170677892Y-87862721D01*
X170624762Y-87734452D01*
X177354000Y-87734452D01*
X177354000Y-88265548D01*
X177557242Y-88756217D01*
X177932783Y-89131758D01*
X178423452Y-89335000D01*
X178954548Y-89335000D01*
X179445217Y-89131758D01*
X179820758Y-88756217D01*
X180024000Y-88265548D01*
X180024000Y-87745452D01*
X180529000Y-87745452D01*
X180529000Y-88276548D01*
X180732242Y-88767217D01*
X181107783Y-89142758D01*
X181598452Y-89346000D01*
X182129548Y-89346000D01*
X182620217Y-89142758D01*
X182995758Y-88767217D01*
X183199000Y-88276548D01*
X183199000Y-87745452D01*
X191070000Y-87745452D01*
X191070000Y-88276548D01*
X191273242Y-88767217D01*
X191648783Y-89142758D01*
X192139452Y-89346000D01*
X192670548Y-89346000D01*
X193161217Y-89142758D01*
X193536758Y-88767217D01*
X193740000Y-88276548D01*
X193740000Y-87745452D01*
X193536758Y-87254783D01*
X193161217Y-86879242D01*
X192670548Y-86676000D01*
X192139452Y-86676000D01*
X191648783Y-86879242D01*
X191273242Y-87254783D01*
X191070000Y-87745452D01*
X183199000Y-87745452D01*
X182995758Y-87254783D01*
X182620217Y-86879242D01*
X182129548Y-86676000D01*
X181598452Y-86676000D01*
X181107783Y-86879242D01*
X180732242Y-87254783D01*
X180529000Y-87745452D01*
X180024000Y-87745452D01*
X180024000Y-87734452D01*
X179820758Y-87243783D01*
X179445217Y-86868242D01*
X178954548Y-86665000D01*
X178423452Y-86665000D01*
X177932783Y-86868242D01*
X177557242Y-87243783D01*
X177354000Y-87734452D01*
X170624762Y-87734452D01*
X170311161Y-86977353D01*
X169950830Y-86768775D01*
X168327605Y-88392000D01*
X167968395Y-88392000D01*
X166345170Y-86768775D01*
X165984839Y-86977353D01*
X165810000Y-87411544D01*
X165810000Y-86589170D01*
X166524775Y-86589170D01*
X168148000Y-88212395D01*
X169771225Y-86589170D01*
X169562647Y-86228839D01*
X168804624Y-85923600D01*
X197747360Y-85923600D01*
X197747360Y-88523600D01*
X197796643Y-88771365D01*
X197936991Y-88981409D01*
X198147035Y-89121757D01*
X198394800Y-89171040D01*
X200994800Y-89171040D01*
X201242565Y-89121757D01*
X201452609Y-88981409D01*
X201592957Y-88771365D01*
X201642240Y-88523600D01*
X201642240Y-85923600D01*
X201592957Y-85675835D01*
X201452609Y-85465791D01*
X201242565Y-85325443D01*
X200994800Y-85276160D01*
X198394800Y-85276160D01*
X198147035Y-85325443D01*
X197936991Y-85465791D01*
X197796643Y-85675835D01*
X197747360Y-85923600D01*
X168804624Y-85923600D01*
X168627157Y-85852138D01*
X167618721Y-85862108D01*
X166733353Y-86228839D01*
X166524775Y-86589170D01*
X165810000Y-86589170D01*
X165810000Y-82673105D01*
X173198000Y-82673105D01*
X173198000Y-83442895D01*
X173492586Y-84154090D01*
X174036910Y-84698414D01*
X174748105Y-84993000D01*
X175517895Y-84993000D01*
X176229090Y-84698414D01*
X176773414Y-84154090D01*
X177038937Y-83513059D01*
X198504946Y-83513059D01*
X198640304Y-83811055D01*
X199358680Y-84087666D01*
X200128227Y-84068310D01*
X200749296Y-83811055D01*
X200884654Y-83513059D01*
X199694800Y-82323205D01*
X198504946Y-83513059D01*
X177038937Y-83513059D01*
X177068000Y-83442895D01*
X177068000Y-82673105D01*
X176773414Y-81961910D01*
X176618984Y-81807480D01*
X197750734Y-81807480D01*
X197770090Y-82577027D01*
X198027345Y-83198096D01*
X198325341Y-83333454D01*
X199515195Y-82143600D01*
X199874405Y-82143600D01*
X201064259Y-83333454D01*
X201362255Y-83198096D01*
X201638866Y-82479720D01*
X201619510Y-81710173D01*
X201362255Y-81089104D01*
X201064259Y-80953746D01*
X199874405Y-82143600D01*
X199515195Y-82143600D01*
X198325341Y-80953746D01*
X198027345Y-81089104D01*
X197750734Y-81807480D01*
X176618984Y-81807480D01*
X176229090Y-81417586D01*
X175517895Y-81123000D01*
X174748105Y-81123000D01*
X174036910Y-81417586D01*
X173492586Y-81961910D01*
X173198000Y-82673105D01*
X165810000Y-82673105D01*
X165810000Y-80774141D01*
X198504946Y-80774141D01*
X199694800Y-81963995D01*
X200884654Y-80774141D01*
X200749296Y-80476145D01*
X200030920Y-80199534D01*
X199261373Y-80218890D01*
X198640304Y-80476145D01*
X198504946Y-80774141D01*
X165810000Y-80774141D01*
X165810000Y-78263750D01*
X173198000Y-78263750D01*
X173198000Y-79404309D01*
X173294673Y-79637698D01*
X173473301Y-79816327D01*
X173706690Y-79913000D01*
X174847250Y-79913000D01*
X175006000Y-79754250D01*
X175006000Y-78105000D01*
X175260000Y-78105000D01*
X175260000Y-79754250D01*
X175418750Y-79913000D01*
X176559310Y-79913000D01*
X176792699Y-79816327D01*
X176971327Y-79637698D01*
X177068000Y-79404309D01*
X177068000Y-78263750D01*
X176909250Y-78105000D01*
X175260000Y-78105000D01*
X175006000Y-78105000D01*
X173356750Y-78105000D01*
X173198000Y-78263750D01*
X165810000Y-78263750D01*
X165810000Y-76551691D01*
X173198000Y-76551691D01*
X173198000Y-77692250D01*
X173356750Y-77851000D01*
X175006000Y-77851000D01*
X175006000Y-76201750D01*
X175260000Y-76201750D01*
X175260000Y-77851000D01*
X176909250Y-77851000D01*
X177068000Y-77692250D01*
X177068000Y-76551691D01*
X176971327Y-76318302D01*
X176792699Y-76139673D01*
X176559310Y-76043000D01*
X175418750Y-76043000D01*
X175260000Y-76201750D01*
X175006000Y-76201750D01*
X174847250Y-76043000D01*
X173706690Y-76043000D01*
X173473301Y-76139673D01*
X173294673Y-76318302D01*
X173198000Y-76551691D01*
X165810000Y-76551691D01*
X165810000Y-70854452D01*
X166559000Y-70854452D01*
X166559000Y-71385548D01*
X166762242Y-71876217D01*
X167137783Y-72251758D01*
X167628452Y-72455000D01*
X168159548Y-72455000D01*
X168650217Y-72251758D01*
X169025758Y-71876217D01*
X169128572Y-71628000D01*
X182359112Y-71628000D01*
X182374000Y-71702847D01*
X182374001Y-73331148D01*
X182359112Y-73406000D01*
X182374001Y-73480852D01*
X182418097Y-73702537D01*
X182586072Y-73953929D01*
X182649528Y-73996329D01*
X182861000Y-74207801D01*
X182861000Y-74373874D01*
X183018569Y-74754280D01*
X183309720Y-75045431D01*
X183690126Y-75203000D01*
X184101874Y-75203000D01*
X184482280Y-75045431D01*
X184773431Y-74754280D01*
X184931000Y-74373874D01*
X184931000Y-73962126D01*
X184773431Y-73581720D01*
X184482280Y-73290569D01*
X184101874Y-73133000D01*
X183935801Y-73133000D01*
X183894000Y-73091199D01*
X183894000Y-71942801D01*
X184443802Y-71393000D01*
X184609874Y-71393000D01*
X184902404Y-71271830D01*
X206656775Y-71271830D01*
X206865353Y-71632161D01*
X207800843Y-72008862D01*
X208809279Y-71998892D01*
X209694647Y-71632161D01*
X209903225Y-71271830D01*
X208280000Y-69648605D01*
X206656775Y-71271830D01*
X184902404Y-71271830D01*
X184990280Y-71235431D01*
X185281431Y-70944280D01*
X185439000Y-70563874D01*
X185439000Y-70152126D01*
X185281431Y-69771720D01*
X184990280Y-69480569D01*
X184609874Y-69323000D01*
X184198126Y-69323000D01*
X183817720Y-69480569D01*
X183526569Y-69771720D01*
X183369000Y-70152126D01*
X183369000Y-70318198D01*
X182649530Y-71037669D01*
X182586071Y-71080071D01*
X182418096Y-71331464D01*
X182374000Y-71553149D01*
X182374000Y-71553153D01*
X182359112Y-71628000D01*
X169128572Y-71628000D01*
X169229000Y-71385548D01*
X169229000Y-70854452D01*
X169025758Y-70363783D01*
X168650217Y-69988242D01*
X168159548Y-69785000D01*
X167628452Y-69785000D01*
X167137783Y-69988242D01*
X166762242Y-70363783D01*
X166559000Y-70854452D01*
X165810000Y-70854452D01*
X165810000Y-69637248D01*
X165877388Y-69059249D01*
X165902581Y-68989843D01*
X205740138Y-68989843D01*
X205750108Y-69998279D01*
X206116839Y-70883647D01*
X206477170Y-71092225D01*
X208100395Y-69469000D01*
X206477170Y-67845775D01*
X206116839Y-68054353D01*
X205740138Y-68989843D01*
X165902581Y-68989843D01*
X166061766Y-68551295D01*
X166358057Y-68099376D01*
X166750364Y-67727742D01*
X167217641Y-67456325D01*
X167744132Y-67296866D01*
X168021067Y-67272150D01*
X168075612Y-67283000D01*
G04 #@! TD*
M02*
