G04 #@! TF.GenerationSoftware,KiCad,Pcbnew,5.0.2+dfsg1-1*
G04 #@! TF.CreationDate,2020-04-05T02:10:05-04:00*
G04 #@! TF.ProjectId,vreg-741,76726567-2d37-4343-912e-6b696361645f,rev?*
G04 #@! TF.SameCoordinates,Original*
G04 #@! TF.FileFunction,Legend,Bot*
G04 #@! TF.FilePolarity,Positive*
%FSLAX46Y46*%
G04 Gerber Fmt 4.6, Leading zero omitted, Abs format (unit mm)*
G04 Created by KiCad (PCBNEW 5.0.2+dfsg1-1) date Sun 05 Apr 2020 02:10:05 AM EDT*
%MOMM*%
%LPD*%
G01*
G04 APERTURE LIST*
%ADD10C,0.010000*%
G04 APERTURE END LIST*
D10*
G04 #@! TO.C,G\002A\002A\002A*
G36*
X188076250Y-74884772D02*
X188390242Y-75007339D01*
X188749547Y-75204641D01*
X189104426Y-75443032D01*
X189405138Y-75688863D01*
X189601945Y-75908489D01*
X189611221Y-75923116D01*
X189780375Y-76200000D01*
X189527919Y-76226414D01*
X189277302Y-76194203D01*
X188998640Y-76032916D01*
X188956399Y-76000275D01*
X188525878Y-75697726D01*
X188147305Y-75507065D01*
X187929709Y-75454379D01*
X188767785Y-75454379D01*
X188830086Y-75537205D01*
X188980725Y-75670902D01*
X189172192Y-75819621D01*
X189356979Y-75947511D01*
X189487576Y-76018723D01*
X189518759Y-76021065D01*
X189496825Y-75943198D01*
X189418606Y-75840685D01*
X189273308Y-75710323D01*
X189089451Y-75581087D01*
X188913993Y-75480849D01*
X188793892Y-75437481D01*
X188767785Y-75454379D01*
X187929709Y-75454379D01*
X187835618Y-75431597D01*
X187605757Y-75474628D01*
X187472661Y-75639463D01*
X187463273Y-75669907D01*
X187441367Y-75842155D01*
X187425690Y-76149044D01*
X187416224Y-76555995D01*
X187412951Y-77028430D01*
X187415850Y-77531773D01*
X187424904Y-78031444D01*
X187440093Y-78492866D01*
X187461399Y-78881461D01*
X187465057Y-78930500D01*
X187519432Y-79629000D01*
X187790089Y-79629000D01*
X187989908Y-79582016D01*
X188271124Y-79460694D01*
X188581329Y-79294471D01*
X188868116Y-79112787D01*
X189079079Y-78945082D01*
X189144669Y-78868075D01*
X189152416Y-78731184D01*
X189019669Y-78621112D01*
X188805484Y-78566349D01*
X188574763Y-78496896D01*
X188433041Y-78408006D01*
X188284072Y-78302577D01*
X188201435Y-78274333D01*
X188089904Y-78217003D01*
X187945808Y-78083833D01*
X187835532Y-77978000D01*
X188679667Y-77978000D01*
X188722000Y-78020333D01*
X188764334Y-77978000D01*
X188722000Y-77935666D01*
X188679667Y-77978000D01*
X187835532Y-77978000D01*
X187768073Y-77913260D01*
X187622705Y-77805536D01*
X187528637Y-77734784D01*
X187521616Y-77642741D01*
X187599856Y-77469275D01*
X187612007Y-77445702D01*
X187646642Y-77390504D01*
X187757506Y-77390504D01*
X187778751Y-77472577D01*
X187900873Y-77600160D01*
X187908494Y-77606405D01*
X188064301Y-77706104D01*
X188160991Y-77720199D01*
X188162494Y-77718828D01*
X188141250Y-77636755D01*
X188019127Y-77509173D01*
X188011506Y-77502928D01*
X187855699Y-77403228D01*
X187759010Y-77389134D01*
X187757506Y-77390504D01*
X187646642Y-77390504D01*
X187741571Y-77239220D01*
X187853681Y-77184810D01*
X187977322Y-77271702D01*
X188002334Y-77300666D01*
X188165293Y-77409156D01*
X188259102Y-77427666D01*
X188418317Y-77471807D01*
X188634429Y-77581768D01*
X188855307Y-77723859D01*
X189028822Y-77864391D01*
X189102844Y-77969672D01*
X189103000Y-77973052D01*
X189169235Y-78068462D01*
X189337102Y-78205195D01*
X189441667Y-78274333D01*
X189641725Y-78411522D01*
X189763298Y-78521014D01*
X189780333Y-78553317D01*
X189754910Y-78587402D01*
X189660983Y-78551363D01*
X189472065Y-78432383D01*
X189330959Y-78335881D01*
X189135628Y-78223436D01*
X189052944Y-78222659D01*
X189085108Y-78316861D01*
X189234321Y-78489355D01*
X189302214Y-78553853D01*
X189482663Y-78743112D01*
X189593877Y-78905935D01*
X189611000Y-78963004D01*
X189536237Y-79132959D01*
X189323819Y-79354012D01*
X188991549Y-79610135D01*
X188642314Y-79834982D01*
X188228861Y-80035375D01*
X187839090Y-80136509D01*
X187505486Y-80134865D01*
X187260534Y-80026925D01*
X187222002Y-79988833D01*
X187105811Y-79845846D01*
X187017022Y-79701164D01*
X186951489Y-79529711D01*
X186945944Y-79503040D01*
X187254640Y-79503040D01*
X187262451Y-79593202D01*
X187340435Y-79733554D01*
X187441736Y-79851904D01*
X187501265Y-79883000D01*
X187518054Y-79826377D01*
X187502474Y-79798333D01*
X188093111Y-79798333D01*
X188224508Y-79753443D01*
X188442478Y-79636692D01*
X188659630Y-79499750D01*
X188889416Y-79338432D01*
X189049656Y-79213383D01*
X189103000Y-79156087D01*
X189046565Y-79151357D01*
X188997167Y-79176840D01*
X188871956Y-79253409D01*
X188652935Y-79386223D01*
X188430648Y-79520503D01*
X188215037Y-79660760D01*
X188093880Y-79760627D01*
X188093111Y-79798333D01*
X187502474Y-79798333D01*
X187441812Y-79689143D01*
X187434786Y-79679625D01*
X187319947Y-79544675D01*
X187255045Y-79502688D01*
X187254640Y-79503040D01*
X186945944Y-79503040D01*
X186905063Y-79306413D01*
X186873597Y-79006196D01*
X186852943Y-78603986D01*
X186838955Y-78074709D01*
X186833046Y-77737980D01*
X186901667Y-77737980D01*
X186904747Y-78257020D01*
X186915022Y-78625483D01*
X186934039Y-78862031D01*
X186963348Y-78985326D01*
X187004497Y-79014031D01*
X187007500Y-79013109D01*
X187094129Y-78908870D01*
X187101726Y-78837631D01*
X187122752Y-78739585D01*
X187155600Y-78739958D01*
X187225396Y-78705096D01*
X187265115Y-78612047D01*
X187263858Y-78470431D01*
X187192276Y-78455181D01*
X187119883Y-78549500D01*
X187095956Y-78560803D01*
X187108905Y-78443666D01*
X187116223Y-78217373D01*
X187082513Y-77945023D01*
X187075893Y-77914049D01*
X187045971Y-77689710D01*
X187069759Y-77558581D01*
X187079815Y-77549218D01*
X187145143Y-77577068D01*
X187162351Y-77655503D01*
X187182892Y-77741186D01*
X187213373Y-77697934D01*
X187195597Y-77558011D01*
X187108900Y-77422767D01*
X187010213Y-77302704D01*
X187031539Y-77261828D01*
X187121378Y-77257036D01*
X187219987Y-77236659D01*
X187178395Y-77189505D01*
X187112373Y-77064463D01*
X187113334Y-76919666D01*
X187112242Y-76744051D01*
X187066157Y-76662673D01*
X187022996Y-76545799D01*
X187065623Y-76383475D01*
X187104702Y-76223256D01*
X187077963Y-76157666D01*
X187014578Y-76185024D01*
X186967810Y-76280618D01*
X186935399Y-76464734D01*
X186915080Y-76757654D01*
X186904590Y-77179662D01*
X186901667Y-77737980D01*
X186833046Y-77737980D01*
X186831070Y-77625445D01*
X186822629Y-77022188D01*
X186820161Y-76561859D01*
X186825412Y-76218107D01*
X186840127Y-75964580D01*
X186853977Y-75863257D01*
X187251083Y-75863257D01*
X187253244Y-76022622D01*
X187266155Y-76538666D01*
X187316744Y-76022326D01*
X187364096Y-75717740D01*
X187434268Y-75463824D01*
X187492874Y-75344992D01*
X187573001Y-75238640D01*
X187552130Y-75242507D01*
X187429374Y-75345288D01*
X187321496Y-75464060D01*
X187266717Y-75618829D01*
X187251083Y-75863257D01*
X186853977Y-75863257D01*
X186866051Y-75774927D01*
X186904930Y-75622796D01*
X186958508Y-75481834D01*
X186975656Y-75442419D01*
X187042772Y-75338880D01*
X187155667Y-75338880D01*
X187207687Y-75346561D01*
X187335944Y-75254885D01*
X187367000Y-75226646D01*
X187497253Y-75083668D01*
X187540231Y-74992745D01*
X187536852Y-74986629D01*
X187452926Y-75003123D01*
X187323681Y-75102512D01*
X187205733Y-75232477D01*
X187155667Y-75338880D01*
X187042772Y-75338880D01*
X187202656Y-75092232D01*
X187503129Y-74892579D01*
X187869090Y-74847507D01*
X188076250Y-74884772D01*
X188076250Y-74884772D01*
G37*
X188076250Y-74884772D02*
X188390242Y-75007339D01*
X188749547Y-75204641D01*
X189104426Y-75443032D01*
X189405138Y-75688863D01*
X189601945Y-75908489D01*
X189611221Y-75923116D01*
X189780375Y-76200000D01*
X189527919Y-76226414D01*
X189277302Y-76194203D01*
X188998640Y-76032916D01*
X188956399Y-76000275D01*
X188525878Y-75697726D01*
X188147305Y-75507065D01*
X187929709Y-75454379D01*
X188767785Y-75454379D01*
X188830086Y-75537205D01*
X188980725Y-75670902D01*
X189172192Y-75819621D01*
X189356979Y-75947511D01*
X189487576Y-76018723D01*
X189518759Y-76021065D01*
X189496825Y-75943198D01*
X189418606Y-75840685D01*
X189273308Y-75710323D01*
X189089451Y-75581087D01*
X188913993Y-75480849D01*
X188793892Y-75437481D01*
X188767785Y-75454379D01*
X187929709Y-75454379D01*
X187835618Y-75431597D01*
X187605757Y-75474628D01*
X187472661Y-75639463D01*
X187463273Y-75669907D01*
X187441367Y-75842155D01*
X187425690Y-76149044D01*
X187416224Y-76555995D01*
X187412951Y-77028430D01*
X187415850Y-77531773D01*
X187424904Y-78031444D01*
X187440093Y-78492866D01*
X187461399Y-78881461D01*
X187465057Y-78930500D01*
X187519432Y-79629000D01*
X187790089Y-79629000D01*
X187989908Y-79582016D01*
X188271124Y-79460694D01*
X188581329Y-79294471D01*
X188868116Y-79112787D01*
X189079079Y-78945082D01*
X189144669Y-78868075D01*
X189152416Y-78731184D01*
X189019669Y-78621112D01*
X188805484Y-78566349D01*
X188574763Y-78496896D01*
X188433041Y-78408006D01*
X188284072Y-78302577D01*
X188201435Y-78274333D01*
X188089904Y-78217003D01*
X187945808Y-78083833D01*
X187835532Y-77978000D01*
X188679667Y-77978000D01*
X188722000Y-78020333D01*
X188764334Y-77978000D01*
X188722000Y-77935666D01*
X188679667Y-77978000D01*
X187835532Y-77978000D01*
X187768073Y-77913260D01*
X187622705Y-77805536D01*
X187528637Y-77734784D01*
X187521616Y-77642741D01*
X187599856Y-77469275D01*
X187612007Y-77445702D01*
X187646642Y-77390504D01*
X187757506Y-77390504D01*
X187778751Y-77472577D01*
X187900873Y-77600160D01*
X187908494Y-77606405D01*
X188064301Y-77706104D01*
X188160991Y-77720199D01*
X188162494Y-77718828D01*
X188141250Y-77636755D01*
X188019127Y-77509173D01*
X188011506Y-77502928D01*
X187855699Y-77403228D01*
X187759010Y-77389134D01*
X187757506Y-77390504D01*
X187646642Y-77390504D01*
X187741571Y-77239220D01*
X187853681Y-77184810D01*
X187977322Y-77271702D01*
X188002334Y-77300666D01*
X188165293Y-77409156D01*
X188259102Y-77427666D01*
X188418317Y-77471807D01*
X188634429Y-77581768D01*
X188855307Y-77723859D01*
X189028822Y-77864391D01*
X189102844Y-77969672D01*
X189103000Y-77973052D01*
X189169235Y-78068462D01*
X189337102Y-78205195D01*
X189441667Y-78274333D01*
X189641725Y-78411522D01*
X189763298Y-78521014D01*
X189780333Y-78553317D01*
X189754910Y-78587402D01*
X189660983Y-78551363D01*
X189472065Y-78432383D01*
X189330959Y-78335881D01*
X189135628Y-78223436D01*
X189052944Y-78222659D01*
X189085108Y-78316861D01*
X189234321Y-78489355D01*
X189302214Y-78553853D01*
X189482663Y-78743112D01*
X189593877Y-78905935D01*
X189611000Y-78963004D01*
X189536237Y-79132959D01*
X189323819Y-79354012D01*
X188991549Y-79610135D01*
X188642314Y-79834982D01*
X188228861Y-80035375D01*
X187839090Y-80136509D01*
X187505486Y-80134865D01*
X187260534Y-80026925D01*
X187222002Y-79988833D01*
X187105811Y-79845846D01*
X187017022Y-79701164D01*
X186951489Y-79529711D01*
X186945944Y-79503040D01*
X187254640Y-79503040D01*
X187262451Y-79593202D01*
X187340435Y-79733554D01*
X187441736Y-79851904D01*
X187501265Y-79883000D01*
X187518054Y-79826377D01*
X187502474Y-79798333D01*
X188093111Y-79798333D01*
X188224508Y-79753443D01*
X188442478Y-79636692D01*
X188659630Y-79499750D01*
X188889416Y-79338432D01*
X189049656Y-79213383D01*
X189103000Y-79156087D01*
X189046565Y-79151357D01*
X188997167Y-79176840D01*
X188871956Y-79253409D01*
X188652935Y-79386223D01*
X188430648Y-79520503D01*
X188215037Y-79660760D01*
X188093880Y-79760627D01*
X188093111Y-79798333D01*
X187502474Y-79798333D01*
X187441812Y-79689143D01*
X187434786Y-79679625D01*
X187319947Y-79544675D01*
X187255045Y-79502688D01*
X187254640Y-79503040D01*
X186945944Y-79503040D01*
X186905063Y-79306413D01*
X186873597Y-79006196D01*
X186852943Y-78603986D01*
X186838955Y-78074709D01*
X186833046Y-77737980D01*
X186901667Y-77737980D01*
X186904747Y-78257020D01*
X186915022Y-78625483D01*
X186934039Y-78862031D01*
X186963348Y-78985326D01*
X187004497Y-79014031D01*
X187007500Y-79013109D01*
X187094129Y-78908870D01*
X187101726Y-78837631D01*
X187122752Y-78739585D01*
X187155600Y-78739958D01*
X187225396Y-78705096D01*
X187265115Y-78612047D01*
X187263858Y-78470431D01*
X187192276Y-78455181D01*
X187119883Y-78549500D01*
X187095956Y-78560803D01*
X187108905Y-78443666D01*
X187116223Y-78217373D01*
X187082513Y-77945023D01*
X187075893Y-77914049D01*
X187045971Y-77689710D01*
X187069759Y-77558581D01*
X187079815Y-77549218D01*
X187145143Y-77577068D01*
X187162351Y-77655503D01*
X187182892Y-77741186D01*
X187213373Y-77697934D01*
X187195597Y-77558011D01*
X187108900Y-77422767D01*
X187010213Y-77302704D01*
X187031539Y-77261828D01*
X187121378Y-77257036D01*
X187219987Y-77236659D01*
X187178395Y-77189505D01*
X187112373Y-77064463D01*
X187113334Y-76919666D01*
X187112242Y-76744051D01*
X187066157Y-76662673D01*
X187022996Y-76545799D01*
X187065623Y-76383475D01*
X187104702Y-76223256D01*
X187077963Y-76157666D01*
X187014578Y-76185024D01*
X186967810Y-76280618D01*
X186935399Y-76464734D01*
X186915080Y-76757654D01*
X186904590Y-77179662D01*
X186901667Y-77737980D01*
X186833046Y-77737980D01*
X186831070Y-77625445D01*
X186822629Y-77022188D01*
X186820161Y-76561859D01*
X186825412Y-76218107D01*
X186840127Y-75964580D01*
X186853977Y-75863257D01*
X187251083Y-75863257D01*
X187253244Y-76022622D01*
X187266155Y-76538666D01*
X187316744Y-76022326D01*
X187364096Y-75717740D01*
X187434268Y-75463824D01*
X187492874Y-75344992D01*
X187573001Y-75238640D01*
X187552130Y-75242507D01*
X187429374Y-75345288D01*
X187321496Y-75464060D01*
X187266717Y-75618829D01*
X187251083Y-75863257D01*
X186853977Y-75863257D01*
X186866051Y-75774927D01*
X186904930Y-75622796D01*
X186958508Y-75481834D01*
X186975656Y-75442419D01*
X187042772Y-75338880D01*
X187155667Y-75338880D01*
X187207687Y-75346561D01*
X187335944Y-75254885D01*
X187367000Y-75226646D01*
X187497253Y-75083668D01*
X187540231Y-74992745D01*
X187536852Y-74986629D01*
X187452926Y-75003123D01*
X187323681Y-75102512D01*
X187205733Y-75232477D01*
X187155667Y-75338880D01*
X187042772Y-75338880D01*
X187202656Y-75092232D01*
X187503129Y-74892579D01*
X187869090Y-74847507D01*
X188076250Y-74884772D01*
G04 #@! TD*
M02*
