G04 #@! TF.GenerationSoftware,KiCad,Pcbnew,5.0.2+dfsg1-1*
G04 #@! TF.CreationDate,2020-04-05T02:10:05-04:00*
G04 #@! TF.ProjectId,vreg-741,76726567-2d37-4343-912e-6b696361645f,rev?*
G04 #@! TF.SameCoordinates,Original*
G04 #@! TF.FileFunction,Paste,Top*
G04 #@! TF.FilePolarity,Positive*
%FSLAX46Y46*%
G04 Gerber Fmt 4.6, Leading zero omitted, Abs format (unit mm)*
G04 Created by KiCad (PCBNEW 5.0.2+dfsg1-1) date Sun 05 Apr 2020 02:10:05 AM EDT*
%MOMM*%
%LPD*%
G01*
G04 APERTURE LIST*
%ADD10R,1.500000X1.100000*%
%ADD11C,0.100000*%
%ADD12C,0.950000*%
%ADD13R,0.600000X1.550000*%
%ADD14R,3.800000X2.000000*%
%ADD15R,1.500000X2.000000*%
%ADD16R,0.900000X0.800000*%
%ADD17R,2.000000X3.800000*%
%ADD18R,2.000000X1.500000*%
%ADD19R,1.600000X1.300000*%
%ADD20R,1.600000X2.000000*%
G04 APERTURE END LIST*
D10*
G04 #@! TO.C,SW1*
X203890800Y-76860400D03*
X194990800Y-76860400D03*
G04 #@! TD*
D11*
G04 #@! TO.C,D1*
G36*
X176150139Y-89188144D02*
X176173194Y-89191563D01*
X176195803Y-89197227D01*
X176217747Y-89205079D01*
X176238817Y-89215044D01*
X176258808Y-89227026D01*
X176277528Y-89240910D01*
X176294798Y-89256562D01*
X176310450Y-89273832D01*
X176324334Y-89292552D01*
X176336316Y-89312543D01*
X176346281Y-89333613D01*
X176354133Y-89355557D01*
X176359797Y-89378166D01*
X176363216Y-89401221D01*
X176364360Y-89424500D01*
X176364360Y-89899500D01*
X176363216Y-89922779D01*
X176359797Y-89945834D01*
X176354133Y-89968443D01*
X176346281Y-89990387D01*
X176336316Y-90011457D01*
X176324334Y-90031448D01*
X176310450Y-90050168D01*
X176294798Y-90067438D01*
X176277528Y-90083090D01*
X176258808Y-90096974D01*
X176238817Y-90108956D01*
X176217747Y-90118921D01*
X176195803Y-90126773D01*
X176173194Y-90132437D01*
X176150139Y-90135856D01*
X176126860Y-90137000D01*
X175551860Y-90137000D01*
X175528581Y-90135856D01*
X175505526Y-90132437D01*
X175482917Y-90126773D01*
X175460973Y-90118921D01*
X175439903Y-90108956D01*
X175419912Y-90096974D01*
X175401192Y-90083090D01*
X175383922Y-90067438D01*
X175368270Y-90050168D01*
X175354386Y-90031448D01*
X175342404Y-90011457D01*
X175332439Y-89990387D01*
X175324587Y-89968443D01*
X175318923Y-89945834D01*
X175315504Y-89922779D01*
X175314360Y-89899500D01*
X175314360Y-89424500D01*
X175315504Y-89401221D01*
X175318923Y-89378166D01*
X175324587Y-89355557D01*
X175332439Y-89333613D01*
X175342404Y-89312543D01*
X175354386Y-89292552D01*
X175368270Y-89273832D01*
X175383922Y-89256562D01*
X175401192Y-89240910D01*
X175419912Y-89227026D01*
X175439903Y-89215044D01*
X175460973Y-89205079D01*
X175482917Y-89197227D01*
X175505526Y-89191563D01*
X175528581Y-89188144D01*
X175551860Y-89187000D01*
X176126860Y-89187000D01*
X176150139Y-89188144D01*
X176150139Y-89188144D01*
G37*
D12*
X175839360Y-89662000D03*
D11*
G36*
X174400139Y-89188144D02*
X174423194Y-89191563D01*
X174445803Y-89197227D01*
X174467747Y-89205079D01*
X174488817Y-89215044D01*
X174508808Y-89227026D01*
X174527528Y-89240910D01*
X174544798Y-89256562D01*
X174560450Y-89273832D01*
X174574334Y-89292552D01*
X174586316Y-89312543D01*
X174596281Y-89333613D01*
X174604133Y-89355557D01*
X174609797Y-89378166D01*
X174613216Y-89401221D01*
X174614360Y-89424500D01*
X174614360Y-89899500D01*
X174613216Y-89922779D01*
X174609797Y-89945834D01*
X174604133Y-89968443D01*
X174596281Y-89990387D01*
X174586316Y-90011457D01*
X174574334Y-90031448D01*
X174560450Y-90050168D01*
X174544798Y-90067438D01*
X174527528Y-90083090D01*
X174508808Y-90096974D01*
X174488817Y-90108956D01*
X174467747Y-90118921D01*
X174445803Y-90126773D01*
X174423194Y-90132437D01*
X174400139Y-90135856D01*
X174376860Y-90137000D01*
X173801860Y-90137000D01*
X173778581Y-90135856D01*
X173755526Y-90132437D01*
X173732917Y-90126773D01*
X173710973Y-90118921D01*
X173689903Y-90108956D01*
X173669912Y-90096974D01*
X173651192Y-90083090D01*
X173633922Y-90067438D01*
X173618270Y-90050168D01*
X173604386Y-90031448D01*
X173592404Y-90011457D01*
X173582439Y-89990387D01*
X173574587Y-89968443D01*
X173568923Y-89945834D01*
X173565504Y-89922779D01*
X173564360Y-89899500D01*
X173564360Y-89424500D01*
X173565504Y-89401221D01*
X173568923Y-89378166D01*
X173574587Y-89355557D01*
X173582439Y-89333613D01*
X173592404Y-89312543D01*
X173604386Y-89292552D01*
X173618270Y-89273832D01*
X173633922Y-89256562D01*
X173651192Y-89240910D01*
X173669912Y-89227026D01*
X173689903Y-89215044D01*
X173710973Y-89205079D01*
X173732917Y-89197227D01*
X173755526Y-89191563D01*
X173778581Y-89188144D01*
X173801860Y-89187000D01*
X174376860Y-89187000D01*
X174400139Y-89188144D01*
X174400139Y-89188144D01*
G37*
D12*
X174089360Y-89662000D03*
G04 #@! TD*
D11*
G04 #@! TO.C,D2*
G36*
X209086879Y-75666044D02*
X209109934Y-75669463D01*
X209132543Y-75675127D01*
X209154487Y-75682979D01*
X209175557Y-75692944D01*
X209195548Y-75704926D01*
X209214268Y-75718810D01*
X209231538Y-75734462D01*
X209247190Y-75751732D01*
X209261074Y-75770452D01*
X209273056Y-75790443D01*
X209283021Y-75811513D01*
X209290873Y-75833457D01*
X209296537Y-75856066D01*
X209299956Y-75879121D01*
X209301100Y-75902400D01*
X209301100Y-76477400D01*
X209299956Y-76500679D01*
X209296537Y-76523734D01*
X209290873Y-76546343D01*
X209283021Y-76568287D01*
X209273056Y-76589357D01*
X209261074Y-76609348D01*
X209247190Y-76628068D01*
X209231538Y-76645338D01*
X209214268Y-76660990D01*
X209195548Y-76674874D01*
X209175557Y-76686856D01*
X209154487Y-76696821D01*
X209132543Y-76704673D01*
X209109934Y-76710337D01*
X209086879Y-76713756D01*
X209063600Y-76714900D01*
X208588600Y-76714900D01*
X208565321Y-76713756D01*
X208542266Y-76710337D01*
X208519657Y-76704673D01*
X208497713Y-76696821D01*
X208476643Y-76686856D01*
X208456652Y-76674874D01*
X208437932Y-76660990D01*
X208420662Y-76645338D01*
X208405010Y-76628068D01*
X208391126Y-76609348D01*
X208379144Y-76589357D01*
X208369179Y-76568287D01*
X208361327Y-76546343D01*
X208355663Y-76523734D01*
X208352244Y-76500679D01*
X208351100Y-76477400D01*
X208351100Y-75902400D01*
X208352244Y-75879121D01*
X208355663Y-75856066D01*
X208361327Y-75833457D01*
X208369179Y-75811513D01*
X208379144Y-75790443D01*
X208391126Y-75770452D01*
X208405010Y-75751732D01*
X208420662Y-75734462D01*
X208437932Y-75718810D01*
X208456652Y-75704926D01*
X208476643Y-75692944D01*
X208497713Y-75682979D01*
X208519657Y-75675127D01*
X208542266Y-75669463D01*
X208565321Y-75666044D01*
X208588600Y-75664900D01*
X209063600Y-75664900D01*
X209086879Y-75666044D01*
X209086879Y-75666044D01*
G37*
D12*
X208826100Y-76189900D03*
D11*
G36*
X209086879Y-77416044D02*
X209109934Y-77419463D01*
X209132543Y-77425127D01*
X209154487Y-77432979D01*
X209175557Y-77442944D01*
X209195548Y-77454926D01*
X209214268Y-77468810D01*
X209231538Y-77484462D01*
X209247190Y-77501732D01*
X209261074Y-77520452D01*
X209273056Y-77540443D01*
X209283021Y-77561513D01*
X209290873Y-77583457D01*
X209296537Y-77606066D01*
X209299956Y-77629121D01*
X209301100Y-77652400D01*
X209301100Y-78227400D01*
X209299956Y-78250679D01*
X209296537Y-78273734D01*
X209290873Y-78296343D01*
X209283021Y-78318287D01*
X209273056Y-78339357D01*
X209261074Y-78359348D01*
X209247190Y-78378068D01*
X209231538Y-78395338D01*
X209214268Y-78410990D01*
X209195548Y-78424874D01*
X209175557Y-78436856D01*
X209154487Y-78446821D01*
X209132543Y-78454673D01*
X209109934Y-78460337D01*
X209086879Y-78463756D01*
X209063600Y-78464900D01*
X208588600Y-78464900D01*
X208565321Y-78463756D01*
X208542266Y-78460337D01*
X208519657Y-78454673D01*
X208497713Y-78446821D01*
X208476643Y-78436856D01*
X208456652Y-78424874D01*
X208437932Y-78410990D01*
X208420662Y-78395338D01*
X208405010Y-78378068D01*
X208391126Y-78359348D01*
X208379144Y-78339357D01*
X208369179Y-78318287D01*
X208361327Y-78296343D01*
X208355663Y-78273734D01*
X208352244Y-78250679D01*
X208351100Y-78227400D01*
X208351100Y-77652400D01*
X208352244Y-77629121D01*
X208355663Y-77606066D01*
X208361327Y-77583457D01*
X208369179Y-77561513D01*
X208379144Y-77540443D01*
X208391126Y-77520452D01*
X208405010Y-77501732D01*
X208420662Y-77484462D01*
X208437932Y-77468810D01*
X208456652Y-77454926D01*
X208476643Y-77442944D01*
X208497713Y-77432979D01*
X208519657Y-77425127D01*
X208542266Y-77419463D01*
X208565321Y-77416044D01*
X208588600Y-77414900D01*
X209063600Y-77414900D01*
X209086879Y-77416044D01*
X209086879Y-77416044D01*
G37*
D12*
X208826100Y-77939900D03*
G04 #@! TD*
D13*
G04 #@! TO.C,U1*
X181820500Y-77837500D03*
X183090500Y-77837500D03*
X184360500Y-77837500D03*
X185630500Y-77837500D03*
X185630500Y-72437500D03*
X184360500Y-72437500D03*
X183090500Y-72437500D03*
X181820500Y-72437500D03*
G04 #@! TD*
D14*
G04 #@! TO.C,Q2*
X190182500Y-77635500D03*
D15*
X190182500Y-71335500D03*
X187882500Y-71335500D03*
X192482500Y-71335500D03*
G04 #@! TD*
D16*
G04 #@! TO.C,D3*
X188960000Y-81849000D03*
X188960000Y-79949000D03*
X186960000Y-80899000D03*
G04 #@! TD*
D11*
G04 #@! TO.C,C1*
G36*
X193415079Y-82891044D02*
X193438134Y-82894463D01*
X193460743Y-82900127D01*
X193482687Y-82907979D01*
X193503757Y-82917944D01*
X193523748Y-82929926D01*
X193542468Y-82943810D01*
X193559738Y-82959462D01*
X193575390Y-82976732D01*
X193589274Y-82995452D01*
X193601256Y-83015443D01*
X193611221Y-83036513D01*
X193619073Y-83058457D01*
X193624737Y-83081066D01*
X193628156Y-83104121D01*
X193629300Y-83127400D01*
X193629300Y-83702400D01*
X193628156Y-83725679D01*
X193624737Y-83748734D01*
X193619073Y-83771343D01*
X193611221Y-83793287D01*
X193601256Y-83814357D01*
X193589274Y-83834348D01*
X193575390Y-83853068D01*
X193559738Y-83870338D01*
X193542468Y-83885990D01*
X193523748Y-83899874D01*
X193503757Y-83911856D01*
X193482687Y-83921821D01*
X193460743Y-83929673D01*
X193438134Y-83935337D01*
X193415079Y-83938756D01*
X193391800Y-83939900D01*
X192916800Y-83939900D01*
X192893521Y-83938756D01*
X192870466Y-83935337D01*
X192847857Y-83929673D01*
X192825913Y-83921821D01*
X192804843Y-83911856D01*
X192784852Y-83899874D01*
X192766132Y-83885990D01*
X192748862Y-83870338D01*
X192733210Y-83853068D01*
X192719326Y-83834348D01*
X192707344Y-83814357D01*
X192697379Y-83793287D01*
X192689527Y-83771343D01*
X192683863Y-83748734D01*
X192680444Y-83725679D01*
X192679300Y-83702400D01*
X192679300Y-83127400D01*
X192680444Y-83104121D01*
X192683863Y-83081066D01*
X192689527Y-83058457D01*
X192697379Y-83036513D01*
X192707344Y-83015443D01*
X192719326Y-82995452D01*
X192733210Y-82976732D01*
X192748862Y-82959462D01*
X192766132Y-82943810D01*
X192784852Y-82929926D01*
X192804843Y-82917944D01*
X192825913Y-82907979D01*
X192847857Y-82900127D01*
X192870466Y-82894463D01*
X192893521Y-82891044D01*
X192916800Y-82889900D01*
X193391800Y-82889900D01*
X193415079Y-82891044D01*
X193415079Y-82891044D01*
G37*
D12*
X193154300Y-83414900D03*
D11*
G36*
X193415079Y-84641044D02*
X193438134Y-84644463D01*
X193460743Y-84650127D01*
X193482687Y-84657979D01*
X193503757Y-84667944D01*
X193523748Y-84679926D01*
X193542468Y-84693810D01*
X193559738Y-84709462D01*
X193575390Y-84726732D01*
X193589274Y-84745452D01*
X193601256Y-84765443D01*
X193611221Y-84786513D01*
X193619073Y-84808457D01*
X193624737Y-84831066D01*
X193628156Y-84854121D01*
X193629300Y-84877400D01*
X193629300Y-85452400D01*
X193628156Y-85475679D01*
X193624737Y-85498734D01*
X193619073Y-85521343D01*
X193611221Y-85543287D01*
X193601256Y-85564357D01*
X193589274Y-85584348D01*
X193575390Y-85603068D01*
X193559738Y-85620338D01*
X193542468Y-85635990D01*
X193523748Y-85649874D01*
X193503757Y-85661856D01*
X193482687Y-85671821D01*
X193460743Y-85679673D01*
X193438134Y-85685337D01*
X193415079Y-85688756D01*
X193391800Y-85689900D01*
X192916800Y-85689900D01*
X192893521Y-85688756D01*
X192870466Y-85685337D01*
X192847857Y-85679673D01*
X192825913Y-85671821D01*
X192804843Y-85661856D01*
X192784852Y-85649874D01*
X192766132Y-85635990D01*
X192748862Y-85620338D01*
X192733210Y-85603068D01*
X192719326Y-85584348D01*
X192707344Y-85564357D01*
X192697379Y-85543287D01*
X192689527Y-85521343D01*
X192683863Y-85498734D01*
X192680444Y-85475679D01*
X192679300Y-85452400D01*
X192679300Y-84877400D01*
X192680444Y-84854121D01*
X192683863Y-84831066D01*
X192689527Y-84808457D01*
X192697379Y-84786513D01*
X192707344Y-84765443D01*
X192719326Y-84745452D01*
X192733210Y-84726732D01*
X192748862Y-84709462D01*
X192766132Y-84693810D01*
X192784852Y-84679926D01*
X192804843Y-84667944D01*
X192825913Y-84657979D01*
X192847857Y-84650127D01*
X192870466Y-84644463D01*
X192893521Y-84641044D01*
X192916800Y-84639900D01*
X193391800Y-84639900D01*
X193415079Y-84641044D01*
X193415079Y-84641044D01*
G37*
D12*
X193154300Y-85164900D03*
G04 #@! TD*
D11*
G04 #@! TO.C,C2*
G36*
X183938779Y-79282144D02*
X183961834Y-79285563D01*
X183984443Y-79291227D01*
X184006387Y-79299079D01*
X184027457Y-79309044D01*
X184047448Y-79321026D01*
X184066168Y-79334910D01*
X184083438Y-79350562D01*
X184099090Y-79367832D01*
X184112974Y-79386552D01*
X184124956Y-79406543D01*
X184134921Y-79427613D01*
X184142773Y-79449557D01*
X184148437Y-79472166D01*
X184151856Y-79495221D01*
X184153000Y-79518500D01*
X184153000Y-79993500D01*
X184151856Y-80016779D01*
X184148437Y-80039834D01*
X184142773Y-80062443D01*
X184134921Y-80084387D01*
X184124956Y-80105457D01*
X184112974Y-80125448D01*
X184099090Y-80144168D01*
X184083438Y-80161438D01*
X184066168Y-80177090D01*
X184047448Y-80190974D01*
X184027457Y-80202956D01*
X184006387Y-80212921D01*
X183984443Y-80220773D01*
X183961834Y-80226437D01*
X183938779Y-80229856D01*
X183915500Y-80231000D01*
X183340500Y-80231000D01*
X183317221Y-80229856D01*
X183294166Y-80226437D01*
X183271557Y-80220773D01*
X183249613Y-80212921D01*
X183228543Y-80202956D01*
X183208552Y-80190974D01*
X183189832Y-80177090D01*
X183172562Y-80161438D01*
X183156910Y-80144168D01*
X183143026Y-80125448D01*
X183131044Y-80105457D01*
X183121079Y-80084387D01*
X183113227Y-80062443D01*
X183107563Y-80039834D01*
X183104144Y-80016779D01*
X183103000Y-79993500D01*
X183103000Y-79518500D01*
X183104144Y-79495221D01*
X183107563Y-79472166D01*
X183113227Y-79449557D01*
X183121079Y-79427613D01*
X183131044Y-79406543D01*
X183143026Y-79386552D01*
X183156910Y-79367832D01*
X183172562Y-79350562D01*
X183189832Y-79334910D01*
X183208552Y-79321026D01*
X183228543Y-79309044D01*
X183249613Y-79299079D01*
X183271557Y-79291227D01*
X183294166Y-79285563D01*
X183317221Y-79282144D01*
X183340500Y-79281000D01*
X183915500Y-79281000D01*
X183938779Y-79282144D01*
X183938779Y-79282144D01*
G37*
D12*
X183628000Y-79756000D03*
D11*
G36*
X182188779Y-79282144D02*
X182211834Y-79285563D01*
X182234443Y-79291227D01*
X182256387Y-79299079D01*
X182277457Y-79309044D01*
X182297448Y-79321026D01*
X182316168Y-79334910D01*
X182333438Y-79350562D01*
X182349090Y-79367832D01*
X182362974Y-79386552D01*
X182374956Y-79406543D01*
X182384921Y-79427613D01*
X182392773Y-79449557D01*
X182398437Y-79472166D01*
X182401856Y-79495221D01*
X182403000Y-79518500D01*
X182403000Y-79993500D01*
X182401856Y-80016779D01*
X182398437Y-80039834D01*
X182392773Y-80062443D01*
X182384921Y-80084387D01*
X182374956Y-80105457D01*
X182362974Y-80125448D01*
X182349090Y-80144168D01*
X182333438Y-80161438D01*
X182316168Y-80177090D01*
X182297448Y-80190974D01*
X182277457Y-80202956D01*
X182256387Y-80212921D01*
X182234443Y-80220773D01*
X182211834Y-80226437D01*
X182188779Y-80229856D01*
X182165500Y-80231000D01*
X181590500Y-80231000D01*
X181567221Y-80229856D01*
X181544166Y-80226437D01*
X181521557Y-80220773D01*
X181499613Y-80212921D01*
X181478543Y-80202956D01*
X181458552Y-80190974D01*
X181439832Y-80177090D01*
X181422562Y-80161438D01*
X181406910Y-80144168D01*
X181393026Y-80125448D01*
X181381044Y-80105457D01*
X181371079Y-80084387D01*
X181363227Y-80062443D01*
X181357563Y-80039834D01*
X181354144Y-80016779D01*
X181353000Y-79993500D01*
X181353000Y-79518500D01*
X181354144Y-79495221D01*
X181357563Y-79472166D01*
X181363227Y-79449557D01*
X181371079Y-79427613D01*
X181381044Y-79406543D01*
X181393026Y-79386552D01*
X181406910Y-79367832D01*
X181422562Y-79350562D01*
X181439832Y-79334910D01*
X181458552Y-79321026D01*
X181478543Y-79309044D01*
X181499613Y-79299079D01*
X181521557Y-79291227D01*
X181544166Y-79285563D01*
X181567221Y-79282144D01*
X181590500Y-79281000D01*
X182165500Y-79281000D01*
X182188779Y-79282144D01*
X182188779Y-79282144D01*
G37*
D12*
X181878000Y-79756000D03*
G04 #@! TD*
D11*
G04 #@! TO.C,C3*
G36*
X185934779Y-69947144D02*
X185957834Y-69950563D01*
X185980443Y-69956227D01*
X186002387Y-69964079D01*
X186023457Y-69974044D01*
X186043448Y-69986026D01*
X186062168Y-69999910D01*
X186079438Y-70015562D01*
X186095090Y-70032832D01*
X186108974Y-70051552D01*
X186120956Y-70071543D01*
X186130921Y-70092613D01*
X186138773Y-70114557D01*
X186144437Y-70137166D01*
X186147856Y-70160221D01*
X186149000Y-70183500D01*
X186149000Y-70758500D01*
X186147856Y-70781779D01*
X186144437Y-70804834D01*
X186138773Y-70827443D01*
X186130921Y-70849387D01*
X186120956Y-70870457D01*
X186108974Y-70890448D01*
X186095090Y-70909168D01*
X186079438Y-70926438D01*
X186062168Y-70942090D01*
X186043448Y-70955974D01*
X186023457Y-70967956D01*
X186002387Y-70977921D01*
X185980443Y-70985773D01*
X185957834Y-70991437D01*
X185934779Y-70994856D01*
X185911500Y-70996000D01*
X185436500Y-70996000D01*
X185413221Y-70994856D01*
X185390166Y-70991437D01*
X185367557Y-70985773D01*
X185345613Y-70977921D01*
X185324543Y-70967956D01*
X185304552Y-70955974D01*
X185285832Y-70942090D01*
X185268562Y-70926438D01*
X185252910Y-70909168D01*
X185239026Y-70890448D01*
X185227044Y-70870457D01*
X185217079Y-70849387D01*
X185209227Y-70827443D01*
X185203563Y-70804834D01*
X185200144Y-70781779D01*
X185199000Y-70758500D01*
X185199000Y-70183500D01*
X185200144Y-70160221D01*
X185203563Y-70137166D01*
X185209227Y-70114557D01*
X185217079Y-70092613D01*
X185227044Y-70071543D01*
X185239026Y-70051552D01*
X185252910Y-70032832D01*
X185268562Y-70015562D01*
X185285832Y-69999910D01*
X185304552Y-69986026D01*
X185324543Y-69974044D01*
X185345613Y-69964079D01*
X185367557Y-69956227D01*
X185390166Y-69950563D01*
X185413221Y-69947144D01*
X185436500Y-69946000D01*
X185911500Y-69946000D01*
X185934779Y-69947144D01*
X185934779Y-69947144D01*
G37*
D12*
X185674000Y-70471000D03*
D11*
G36*
X185934779Y-68197144D02*
X185957834Y-68200563D01*
X185980443Y-68206227D01*
X186002387Y-68214079D01*
X186023457Y-68224044D01*
X186043448Y-68236026D01*
X186062168Y-68249910D01*
X186079438Y-68265562D01*
X186095090Y-68282832D01*
X186108974Y-68301552D01*
X186120956Y-68321543D01*
X186130921Y-68342613D01*
X186138773Y-68364557D01*
X186144437Y-68387166D01*
X186147856Y-68410221D01*
X186149000Y-68433500D01*
X186149000Y-69008500D01*
X186147856Y-69031779D01*
X186144437Y-69054834D01*
X186138773Y-69077443D01*
X186130921Y-69099387D01*
X186120956Y-69120457D01*
X186108974Y-69140448D01*
X186095090Y-69159168D01*
X186079438Y-69176438D01*
X186062168Y-69192090D01*
X186043448Y-69205974D01*
X186023457Y-69217956D01*
X186002387Y-69227921D01*
X185980443Y-69235773D01*
X185957834Y-69241437D01*
X185934779Y-69244856D01*
X185911500Y-69246000D01*
X185436500Y-69246000D01*
X185413221Y-69244856D01*
X185390166Y-69241437D01*
X185367557Y-69235773D01*
X185345613Y-69227921D01*
X185324543Y-69217956D01*
X185304552Y-69205974D01*
X185285832Y-69192090D01*
X185268562Y-69176438D01*
X185252910Y-69159168D01*
X185239026Y-69140448D01*
X185227044Y-69120457D01*
X185217079Y-69099387D01*
X185209227Y-69077443D01*
X185203563Y-69054834D01*
X185200144Y-69031779D01*
X185199000Y-69008500D01*
X185199000Y-68433500D01*
X185200144Y-68410221D01*
X185203563Y-68387166D01*
X185209227Y-68364557D01*
X185217079Y-68342613D01*
X185227044Y-68321543D01*
X185239026Y-68301552D01*
X185252910Y-68282832D01*
X185268562Y-68265562D01*
X185285832Y-68249910D01*
X185304552Y-68236026D01*
X185324543Y-68224044D01*
X185345613Y-68214079D01*
X185367557Y-68206227D01*
X185390166Y-68200563D01*
X185413221Y-68197144D01*
X185436500Y-68196000D01*
X185911500Y-68196000D01*
X185934779Y-68197144D01*
X185934779Y-68197144D01*
G37*
D12*
X185674000Y-68721000D03*
G04 #@! TD*
D11*
G04 #@! TO.C,R1*
G36*
X176150139Y-87535933D02*
X176173194Y-87539352D01*
X176195803Y-87545016D01*
X176217747Y-87552868D01*
X176238817Y-87562833D01*
X176258808Y-87574815D01*
X176277528Y-87588699D01*
X176294798Y-87604351D01*
X176310450Y-87621621D01*
X176324334Y-87640341D01*
X176336316Y-87660332D01*
X176346281Y-87681402D01*
X176354133Y-87703346D01*
X176359797Y-87725955D01*
X176363216Y-87749010D01*
X176364360Y-87772289D01*
X176364360Y-88247289D01*
X176363216Y-88270568D01*
X176359797Y-88293623D01*
X176354133Y-88316232D01*
X176346281Y-88338176D01*
X176336316Y-88359246D01*
X176324334Y-88379237D01*
X176310450Y-88397957D01*
X176294798Y-88415227D01*
X176277528Y-88430879D01*
X176258808Y-88444763D01*
X176238817Y-88456745D01*
X176217747Y-88466710D01*
X176195803Y-88474562D01*
X176173194Y-88480226D01*
X176150139Y-88483645D01*
X176126860Y-88484789D01*
X175551860Y-88484789D01*
X175528581Y-88483645D01*
X175505526Y-88480226D01*
X175482917Y-88474562D01*
X175460973Y-88466710D01*
X175439903Y-88456745D01*
X175419912Y-88444763D01*
X175401192Y-88430879D01*
X175383922Y-88415227D01*
X175368270Y-88397957D01*
X175354386Y-88379237D01*
X175342404Y-88359246D01*
X175332439Y-88338176D01*
X175324587Y-88316232D01*
X175318923Y-88293623D01*
X175315504Y-88270568D01*
X175314360Y-88247289D01*
X175314360Y-87772289D01*
X175315504Y-87749010D01*
X175318923Y-87725955D01*
X175324587Y-87703346D01*
X175332439Y-87681402D01*
X175342404Y-87660332D01*
X175354386Y-87640341D01*
X175368270Y-87621621D01*
X175383922Y-87604351D01*
X175401192Y-87588699D01*
X175419912Y-87574815D01*
X175439903Y-87562833D01*
X175460973Y-87552868D01*
X175482917Y-87545016D01*
X175505526Y-87539352D01*
X175528581Y-87535933D01*
X175551860Y-87534789D01*
X176126860Y-87534789D01*
X176150139Y-87535933D01*
X176150139Y-87535933D01*
G37*
D12*
X175839360Y-88009789D03*
D11*
G36*
X174400139Y-87535933D02*
X174423194Y-87539352D01*
X174445803Y-87545016D01*
X174467747Y-87552868D01*
X174488817Y-87562833D01*
X174508808Y-87574815D01*
X174527528Y-87588699D01*
X174544798Y-87604351D01*
X174560450Y-87621621D01*
X174574334Y-87640341D01*
X174586316Y-87660332D01*
X174596281Y-87681402D01*
X174604133Y-87703346D01*
X174609797Y-87725955D01*
X174613216Y-87749010D01*
X174614360Y-87772289D01*
X174614360Y-88247289D01*
X174613216Y-88270568D01*
X174609797Y-88293623D01*
X174604133Y-88316232D01*
X174596281Y-88338176D01*
X174586316Y-88359246D01*
X174574334Y-88379237D01*
X174560450Y-88397957D01*
X174544798Y-88415227D01*
X174527528Y-88430879D01*
X174508808Y-88444763D01*
X174488817Y-88456745D01*
X174467747Y-88466710D01*
X174445803Y-88474562D01*
X174423194Y-88480226D01*
X174400139Y-88483645D01*
X174376860Y-88484789D01*
X173801860Y-88484789D01*
X173778581Y-88483645D01*
X173755526Y-88480226D01*
X173732917Y-88474562D01*
X173710973Y-88466710D01*
X173689903Y-88456745D01*
X173669912Y-88444763D01*
X173651192Y-88430879D01*
X173633922Y-88415227D01*
X173618270Y-88397957D01*
X173604386Y-88379237D01*
X173592404Y-88359246D01*
X173582439Y-88338176D01*
X173574587Y-88316232D01*
X173568923Y-88293623D01*
X173565504Y-88270568D01*
X173564360Y-88247289D01*
X173564360Y-87772289D01*
X173565504Y-87749010D01*
X173568923Y-87725955D01*
X173574587Y-87703346D01*
X173582439Y-87681402D01*
X173592404Y-87660332D01*
X173604386Y-87640341D01*
X173618270Y-87621621D01*
X173633922Y-87604351D01*
X173651192Y-87588699D01*
X173669912Y-87574815D01*
X173689903Y-87562833D01*
X173710973Y-87552868D01*
X173732917Y-87545016D01*
X173755526Y-87539352D01*
X173778581Y-87535933D01*
X173801860Y-87534789D01*
X174376860Y-87534789D01*
X174400139Y-87535933D01*
X174400139Y-87535933D01*
G37*
D12*
X174089360Y-88009789D03*
G04 #@! TD*
D11*
G04 #@! TO.C,R2*
G36*
X207461279Y-75664744D02*
X207484334Y-75668163D01*
X207506943Y-75673827D01*
X207528887Y-75681679D01*
X207549957Y-75691644D01*
X207569948Y-75703626D01*
X207588668Y-75717510D01*
X207605938Y-75733162D01*
X207621590Y-75750432D01*
X207635474Y-75769152D01*
X207647456Y-75789143D01*
X207657421Y-75810213D01*
X207665273Y-75832157D01*
X207670937Y-75854766D01*
X207674356Y-75877821D01*
X207675500Y-75901100D01*
X207675500Y-76476100D01*
X207674356Y-76499379D01*
X207670937Y-76522434D01*
X207665273Y-76545043D01*
X207657421Y-76566987D01*
X207647456Y-76588057D01*
X207635474Y-76608048D01*
X207621590Y-76626768D01*
X207605938Y-76644038D01*
X207588668Y-76659690D01*
X207569948Y-76673574D01*
X207549957Y-76685556D01*
X207528887Y-76695521D01*
X207506943Y-76703373D01*
X207484334Y-76709037D01*
X207461279Y-76712456D01*
X207438000Y-76713600D01*
X206963000Y-76713600D01*
X206939721Y-76712456D01*
X206916666Y-76709037D01*
X206894057Y-76703373D01*
X206872113Y-76695521D01*
X206851043Y-76685556D01*
X206831052Y-76673574D01*
X206812332Y-76659690D01*
X206795062Y-76644038D01*
X206779410Y-76626768D01*
X206765526Y-76608048D01*
X206753544Y-76588057D01*
X206743579Y-76566987D01*
X206735727Y-76545043D01*
X206730063Y-76522434D01*
X206726644Y-76499379D01*
X206725500Y-76476100D01*
X206725500Y-75901100D01*
X206726644Y-75877821D01*
X206730063Y-75854766D01*
X206735727Y-75832157D01*
X206743579Y-75810213D01*
X206753544Y-75789143D01*
X206765526Y-75769152D01*
X206779410Y-75750432D01*
X206795062Y-75733162D01*
X206812332Y-75717510D01*
X206831052Y-75703626D01*
X206851043Y-75691644D01*
X206872113Y-75681679D01*
X206894057Y-75673827D01*
X206916666Y-75668163D01*
X206939721Y-75664744D01*
X206963000Y-75663600D01*
X207438000Y-75663600D01*
X207461279Y-75664744D01*
X207461279Y-75664744D01*
G37*
D12*
X207200500Y-76188600D03*
D11*
G36*
X207461279Y-77414744D02*
X207484334Y-77418163D01*
X207506943Y-77423827D01*
X207528887Y-77431679D01*
X207549957Y-77441644D01*
X207569948Y-77453626D01*
X207588668Y-77467510D01*
X207605938Y-77483162D01*
X207621590Y-77500432D01*
X207635474Y-77519152D01*
X207647456Y-77539143D01*
X207657421Y-77560213D01*
X207665273Y-77582157D01*
X207670937Y-77604766D01*
X207674356Y-77627821D01*
X207675500Y-77651100D01*
X207675500Y-78226100D01*
X207674356Y-78249379D01*
X207670937Y-78272434D01*
X207665273Y-78295043D01*
X207657421Y-78316987D01*
X207647456Y-78338057D01*
X207635474Y-78358048D01*
X207621590Y-78376768D01*
X207605938Y-78394038D01*
X207588668Y-78409690D01*
X207569948Y-78423574D01*
X207549957Y-78435556D01*
X207528887Y-78445521D01*
X207506943Y-78453373D01*
X207484334Y-78459037D01*
X207461279Y-78462456D01*
X207438000Y-78463600D01*
X206963000Y-78463600D01*
X206939721Y-78462456D01*
X206916666Y-78459037D01*
X206894057Y-78453373D01*
X206872113Y-78445521D01*
X206851043Y-78435556D01*
X206831052Y-78423574D01*
X206812332Y-78409690D01*
X206795062Y-78394038D01*
X206779410Y-78376768D01*
X206765526Y-78358048D01*
X206753544Y-78338057D01*
X206743579Y-78316987D01*
X206735727Y-78295043D01*
X206730063Y-78272434D01*
X206726644Y-78249379D01*
X206725500Y-78226100D01*
X206725500Y-77651100D01*
X206726644Y-77627821D01*
X206730063Y-77604766D01*
X206735727Y-77582157D01*
X206743579Y-77560213D01*
X206753544Y-77539143D01*
X206765526Y-77519152D01*
X206779410Y-77500432D01*
X206795062Y-77483162D01*
X206812332Y-77467510D01*
X206831052Y-77453626D01*
X206851043Y-77441644D01*
X206872113Y-77431679D01*
X206894057Y-77423827D01*
X206916666Y-77418163D01*
X206939721Y-77414744D01*
X206963000Y-77413600D01*
X207438000Y-77413600D01*
X207461279Y-77414744D01*
X207461279Y-77414744D01*
G37*
D12*
X207200500Y-77938600D03*
G04 #@! TD*
D11*
G04 #@! TO.C,R3*
G36*
X182037779Y-69820144D02*
X182060834Y-69823563D01*
X182083443Y-69829227D01*
X182105387Y-69837079D01*
X182126457Y-69847044D01*
X182146448Y-69859026D01*
X182165168Y-69872910D01*
X182182438Y-69888562D01*
X182198090Y-69905832D01*
X182211974Y-69924552D01*
X182223956Y-69944543D01*
X182233921Y-69965613D01*
X182241773Y-69987557D01*
X182247437Y-70010166D01*
X182250856Y-70033221D01*
X182252000Y-70056500D01*
X182252000Y-70631500D01*
X182250856Y-70654779D01*
X182247437Y-70677834D01*
X182241773Y-70700443D01*
X182233921Y-70722387D01*
X182223956Y-70743457D01*
X182211974Y-70763448D01*
X182198090Y-70782168D01*
X182182438Y-70799438D01*
X182165168Y-70815090D01*
X182146448Y-70828974D01*
X182126457Y-70840956D01*
X182105387Y-70850921D01*
X182083443Y-70858773D01*
X182060834Y-70864437D01*
X182037779Y-70867856D01*
X182014500Y-70869000D01*
X181539500Y-70869000D01*
X181516221Y-70867856D01*
X181493166Y-70864437D01*
X181470557Y-70858773D01*
X181448613Y-70850921D01*
X181427543Y-70840956D01*
X181407552Y-70828974D01*
X181388832Y-70815090D01*
X181371562Y-70799438D01*
X181355910Y-70782168D01*
X181342026Y-70763448D01*
X181330044Y-70743457D01*
X181320079Y-70722387D01*
X181312227Y-70700443D01*
X181306563Y-70677834D01*
X181303144Y-70654779D01*
X181302000Y-70631500D01*
X181302000Y-70056500D01*
X181303144Y-70033221D01*
X181306563Y-70010166D01*
X181312227Y-69987557D01*
X181320079Y-69965613D01*
X181330044Y-69944543D01*
X181342026Y-69924552D01*
X181355910Y-69905832D01*
X181371562Y-69888562D01*
X181388832Y-69872910D01*
X181407552Y-69859026D01*
X181427543Y-69847044D01*
X181448613Y-69837079D01*
X181470557Y-69829227D01*
X181493166Y-69823563D01*
X181516221Y-69820144D01*
X181539500Y-69819000D01*
X182014500Y-69819000D01*
X182037779Y-69820144D01*
X182037779Y-69820144D01*
G37*
D12*
X181777000Y-70344000D03*
D11*
G36*
X182037779Y-68070144D02*
X182060834Y-68073563D01*
X182083443Y-68079227D01*
X182105387Y-68087079D01*
X182126457Y-68097044D01*
X182146448Y-68109026D01*
X182165168Y-68122910D01*
X182182438Y-68138562D01*
X182198090Y-68155832D01*
X182211974Y-68174552D01*
X182223956Y-68194543D01*
X182233921Y-68215613D01*
X182241773Y-68237557D01*
X182247437Y-68260166D01*
X182250856Y-68283221D01*
X182252000Y-68306500D01*
X182252000Y-68881500D01*
X182250856Y-68904779D01*
X182247437Y-68927834D01*
X182241773Y-68950443D01*
X182233921Y-68972387D01*
X182223956Y-68993457D01*
X182211974Y-69013448D01*
X182198090Y-69032168D01*
X182182438Y-69049438D01*
X182165168Y-69065090D01*
X182146448Y-69078974D01*
X182126457Y-69090956D01*
X182105387Y-69100921D01*
X182083443Y-69108773D01*
X182060834Y-69114437D01*
X182037779Y-69117856D01*
X182014500Y-69119000D01*
X181539500Y-69119000D01*
X181516221Y-69117856D01*
X181493166Y-69114437D01*
X181470557Y-69108773D01*
X181448613Y-69100921D01*
X181427543Y-69090956D01*
X181407552Y-69078974D01*
X181388832Y-69065090D01*
X181371562Y-69049438D01*
X181355910Y-69032168D01*
X181342026Y-69013448D01*
X181330044Y-68993457D01*
X181320079Y-68972387D01*
X181312227Y-68950443D01*
X181306563Y-68927834D01*
X181303144Y-68904779D01*
X181302000Y-68881500D01*
X181302000Y-68306500D01*
X181303144Y-68283221D01*
X181306563Y-68260166D01*
X181312227Y-68237557D01*
X181320079Y-68215613D01*
X181330044Y-68194543D01*
X181342026Y-68174552D01*
X181355910Y-68155832D01*
X181371562Y-68138562D01*
X181388832Y-68122910D01*
X181407552Y-68109026D01*
X181427543Y-68097044D01*
X181448613Y-68087079D01*
X181470557Y-68079227D01*
X181493166Y-68073563D01*
X181516221Y-68070144D01*
X181539500Y-68069000D01*
X182014500Y-68069000D01*
X182037779Y-68070144D01*
X182037779Y-68070144D01*
G37*
D12*
X181777000Y-68594000D03*
G04 #@! TD*
D17*
G04 #@! TO.C,Q1*
X179464500Y-70943500D03*
D18*
X173164500Y-70943500D03*
X173164500Y-73243500D03*
X173164500Y-68643500D03*
G04 #@! TD*
D19*
G04 #@! TO.C,RV1*
X184990400Y-84551600D03*
D20*
X182090400Y-83301600D03*
D19*
X184990400Y-82051600D03*
G04 #@! TD*
D11*
G04 #@! TO.C,R4*
G36*
X171202779Y-71471144D02*
X171225834Y-71474563D01*
X171248443Y-71480227D01*
X171270387Y-71488079D01*
X171291457Y-71498044D01*
X171311448Y-71510026D01*
X171330168Y-71523910D01*
X171347438Y-71539562D01*
X171363090Y-71556832D01*
X171376974Y-71575552D01*
X171388956Y-71595543D01*
X171398921Y-71616613D01*
X171406773Y-71638557D01*
X171412437Y-71661166D01*
X171415856Y-71684221D01*
X171417000Y-71707500D01*
X171417000Y-72282500D01*
X171415856Y-72305779D01*
X171412437Y-72328834D01*
X171406773Y-72351443D01*
X171398921Y-72373387D01*
X171388956Y-72394457D01*
X171376974Y-72414448D01*
X171363090Y-72433168D01*
X171347438Y-72450438D01*
X171330168Y-72466090D01*
X171311448Y-72479974D01*
X171291457Y-72491956D01*
X171270387Y-72501921D01*
X171248443Y-72509773D01*
X171225834Y-72515437D01*
X171202779Y-72518856D01*
X171179500Y-72520000D01*
X170704500Y-72520000D01*
X170681221Y-72518856D01*
X170658166Y-72515437D01*
X170635557Y-72509773D01*
X170613613Y-72501921D01*
X170592543Y-72491956D01*
X170572552Y-72479974D01*
X170553832Y-72466090D01*
X170536562Y-72450438D01*
X170520910Y-72433168D01*
X170507026Y-72414448D01*
X170495044Y-72394457D01*
X170485079Y-72373387D01*
X170477227Y-72351443D01*
X170471563Y-72328834D01*
X170468144Y-72305779D01*
X170467000Y-72282500D01*
X170467000Y-71707500D01*
X170468144Y-71684221D01*
X170471563Y-71661166D01*
X170477227Y-71638557D01*
X170485079Y-71616613D01*
X170495044Y-71595543D01*
X170507026Y-71575552D01*
X170520910Y-71556832D01*
X170536562Y-71539562D01*
X170553832Y-71523910D01*
X170572552Y-71510026D01*
X170592543Y-71498044D01*
X170613613Y-71488079D01*
X170635557Y-71480227D01*
X170658166Y-71474563D01*
X170681221Y-71471144D01*
X170704500Y-71470000D01*
X171179500Y-71470000D01*
X171202779Y-71471144D01*
X171202779Y-71471144D01*
G37*
D12*
X170942000Y-71995000D03*
D11*
G36*
X171202779Y-69721144D02*
X171225834Y-69724563D01*
X171248443Y-69730227D01*
X171270387Y-69738079D01*
X171291457Y-69748044D01*
X171311448Y-69760026D01*
X171330168Y-69773910D01*
X171347438Y-69789562D01*
X171363090Y-69806832D01*
X171376974Y-69825552D01*
X171388956Y-69845543D01*
X171398921Y-69866613D01*
X171406773Y-69888557D01*
X171412437Y-69911166D01*
X171415856Y-69934221D01*
X171417000Y-69957500D01*
X171417000Y-70532500D01*
X171415856Y-70555779D01*
X171412437Y-70578834D01*
X171406773Y-70601443D01*
X171398921Y-70623387D01*
X171388956Y-70644457D01*
X171376974Y-70664448D01*
X171363090Y-70683168D01*
X171347438Y-70700438D01*
X171330168Y-70716090D01*
X171311448Y-70729974D01*
X171291457Y-70741956D01*
X171270387Y-70751921D01*
X171248443Y-70759773D01*
X171225834Y-70765437D01*
X171202779Y-70768856D01*
X171179500Y-70770000D01*
X170704500Y-70770000D01*
X170681221Y-70768856D01*
X170658166Y-70765437D01*
X170635557Y-70759773D01*
X170613613Y-70751921D01*
X170592543Y-70741956D01*
X170572552Y-70729974D01*
X170553832Y-70716090D01*
X170536562Y-70700438D01*
X170520910Y-70683168D01*
X170507026Y-70664448D01*
X170495044Y-70644457D01*
X170485079Y-70623387D01*
X170477227Y-70601443D01*
X170471563Y-70578834D01*
X170468144Y-70555779D01*
X170467000Y-70532500D01*
X170467000Y-69957500D01*
X170468144Y-69934221D01*
X170471563Y-69911166D01*
X170477227Y-69888557D01*
X170485079Y-69866613D01*
X170495044Y-69845543D01*
X170507026Y-69825552D01*
X170520910Y-69806832D01*
X170536562Y-69789562D01*
X170553832Y-69773910D01*
X170572552Y-69760026D01*
X170592543Y-69748044D01*
X170613613Y-69738079D01*
X170635557Y-69730227D01*
X170658166Y-69724563D01*
X170681221Y-69721144D01*
X170704500Y-69720000D01*
X171179500Y-69720000D01*
X171202779Y-69721144D01*
X171202779Y-69721144D01*
G37*
D12*
X170942000Y-70245000D03*
G04 #@! TD*
M02*
